<svg xmlns="http://www.w3.org/2000/svg" width="20" height="20" fill="none"><g clip-path="url(#a)"><path fill="#fff" fill-rule="evenodd" d="M3.748 3.56c.62.502.851.464 2.014.386l10.955-.658c.233 0 .04-.232-.038-.27l-1.82-1.315c-.348-.271-.813-.581-1.703-.504l-10.608.774c-.387.039-.465.232-.31.387l1.51 1.2Zm.658 2.552V17.64c0 .62.31.851 1.007.813l12.04-.697c.697-.038.775-.464.775-.968V5.338c0-.502-.194-.773-.62-.734l-12.583.734c-.464.04-.619.272-.619.774Zm11.886.619c.078.348 0 .696-.349.736l-.58.115v8.51c-.503.271-.968.426-1.355.426-.62 0-.775-.194-1.24-.774L8.975 9.788v5.764l1.201.271s0 .696-.969.696l-2.67.155c-.078-.155 0-.541.27-.619l.697-.193V8.24l-.967-.079c-.078-.348.115-.85.658-.89l2.865-.193 3.949 6.035V7.776L13 7.66c-.077-.426.232-.735.62-.774l2.671-.155ZM1.657.929 12.69.116c1.355-.116 1.704-.038 2.556.58l3.522 2.476c.581.426.775.542.775 1.006v13.578c0 .851-.31 1.354-1.394 1.431l-12.814.774c-.814.039-1.2-.077-1.627-.619l-2.594-3.365c-.465-.62-.658-1.083-.658-1.626V2.282c0-.696.31-1.276 1.2-1.353Z" clip-rule="evenodd"/></g><defs><clipPath id="a"><path fill="#fff" d="M0 0h20v20H0z"/></clipPath></defs></svg>