<svg xmlns="http://www.w3.org/2000/svg" width="156" height="34" fill="none"><g fill="#282828" clip-path="url(#a)"><path d="M14.455 7.806V9.54l9.829 4.914-9.829 4.914v14.454l11.563-5.782V13.588L14.455 7.806ZM0 20.235l11.563 5.781v-1.734l-9.829-4.914 9.829-4.914V0L0 5.781v14.454Zm44.858 5.763H37.58V7.83h6.729c4.16 0 6.147 1.866 6.147 4.74 0 2.02-1.131 3.426-2.783 3.977 2.141.52 3.609 2.08 3.609 4.343 0 2.997-2.172 5.107-6.423 5.107Zm-.887-15.721h-3.456v5.444h3.64c2.294 0 3.364-1.101 3.364-2.752 0-1.683-1.07-2.692-3.548-2.692Zm.551 7.677h-4.007v5.597h3.976c2.478 0 3.793-.979 3.793-2.906 0-1.712-1.193-2.691-3.762-2.691Zm14.68 8.259c-4.037 0-7.126-2.875-7.126-6.943s3.089-6.943 7.126-6.943c4.068 0 7.126 2.875 7.126 6.943s-3.058 6.943-7.126 6.943Zm0-11.378c-2.355 0-4.16 1.805-4.16 4.435s1.836 4.435 4.16 4.435c2.355 0 4.16-1.805 4.16-4.435s-1.835-4.435-4.16-4.435Zm14.957 11.378c-4.038 0-7.127-2.875-7.127-6.943s3.09-6.943 7.127-6.943c4.067 0 7.126 2.875 7.126 6.943s-3.059 6.943-7.126 6.943Zm0-11.378c-2.356 0-4.16 1.805-4.16 4.435s1.835 4.435 4.16 4.435c2.354 0 4.16-1.805 4.16-4.435s-1.836-4.435-4.16-4.435Zm15.719 3.516 5.72 7.646h-3.395l-4.496-5.627-1.897 2.049v3.578h-2.875V6.76l2.875-.153v13.03h.123c.458-.765 1.162-1.744 2.049-2.845l4.037-4.312 3.181.122-5.322 5.75Zm17.982-7.127c-1.01-.58-2.967-.978-4.496-.978-2.386 0-3.701.887-3.701 2.416 0 3.64 9.542 1.866 9.542 8.135 0 3.334-2.416 5.414-7.065 5.414-2.202 0-4.343-.49-5.597-1.162l.306-2.783c1.193.703 3.364 1.315 5.383 1.315 2.692 0 3.945-.887 3.945-2.508 0-3.762-9.573-1.896-9.573-8.167 0-3.12 2.478-5.29 6.699-5.29 1.835 0 3.884.336 5.138.978l-.581 2.63Zm10.611 3.793h-3.915v6.514c0 1.53.826 2.172 2.171 2.172a3.33 3.33 0 0 0 1.958-.642l.153 2.446c-.643.46-1.591.704-2.722.704-2.967 0-4.405-1.53-4.405-4.343v-6.851h-1.896v-2.478h1.896V9.603l2.845-.642v3.578h4.129l-.214 2.478Zm8.134 11.196c-4.037 0-7.126-2.875-7.126-6.943s3.089-6.943 7.126-6.943c4.068 0 7.126 2.875 7.126 6.943s-3.058 6.943-7.126 6.943Zm0-11.378c-2.355 0-4.16 1.805-4.16 4.435s1.835 4.435 4.16 4.435c2.355 0 4.159-1.805 4.159-4.435s-1.835-4.435-4.159-4.435Zm16.548.398c-.306-.123-.917-.245-1.376-.245-1.315 0-2.569.643-3.517 1.621V26h-2.875V12.603l2.875-.123v1.805c1.131-1.285 2.538-1.958 3.976-1.958.367 0 .795.061 1.009.153l-.092 2.753Zm3.362 4.71c.306 2.324 2.141 3.762 4.985 3.762 1.53 0 3.304-.49 4.374-1.254l.123 2.538c-1.04.765-3.059 1.224-4.68 1.224-4.863 0-7.799-2.723-7.799-7.065 0-4.099 2.814-6.82 6.576-6.82 3.425 0 5.903 2.232 5.903 5.78 0 .52-.031 1.254-.123 1.835h-9.359Zm-.092-1.744h6.851c.031-.122.031-.336.031-.489 0-1.927-1.285-3.273-3.211-3.273-2.019 0-3.457 1.469-3.671 3.762Z"/></g><defs><clipPath id="a"><path fill="#fff" d="M.003 0H156v33.821H.003z"/></clipPath></defs></svg>