<svg xmlns="http://www.w3.org/2000/svg" width="24" height="24" fill="none"><path fill="#FF4D00" d="M.261 1.491C.02.71-.102.317.108.108c.21-.21.6-.089 1.383.153L7.61 2.155a2.95 2.95 0 0 1 1.946 1.946L12 12 4.1 9.555a2.95 2.95 0 0 1-1.945-1.946L.261 1.491Z"/><path fill="#FF4D00" d="m12 12 7.9 2.445a2.95 2.95 0 0 1 1.945 1.946l1.894 6.118c.242.782.363 1.174.153 1.383-.21.21-.6.089-1.383-.153l-6.118-1.894a2.95 2.95 0 0 1-1.946-1.946L12 12l-2.445 7.9a2.95 2.95 0 0 1-1.946 1.945l-6.118 1.894c-.782.242-1.173.363-1.383.153-.21-.21-.089-.6.153-1.383l1.894-6.118a2.95 2.95 0 0 1 1.946-1.946L12 12l2.445-7.9a2.95 2.95 0 0 1 1.946-1.945L22.509.261c.782-.242 1.174-.363 1.383-.153.21.21.089.6-.153 1.383L21.845 7.61a2.95 2.95 0 0 1-1.946 1.946L12 12Z"/></svg>