<svg xmlns="http://www.w3.org/2000/svg" width="60" height="15" fill="none"><g fill="#999" clip-path="url(#a)"><path d="M30.5 2.248a17.702 17.702 0 0 0-3.03 2.239 78.799 78.799 0 0 0-2.772 2.596 50.392 50.392 0 0 0-1.515 1.524L21.7 10.165c-.258.303-.538.606-.839.908-.28.282-.559.584-.838.909.451-.108.892-.238 1.322-.39.451-.15.86-.28 1.225-.389.322-.065.666-.151 1.032-.26.365-.108.73-.194 1.096-.259.365-.086.73-.13 1.096-.13a2.45 2.45 0 0 1 1.064.162c.408.152.655.412.741.78a.934.934 0 0 1-.064.68 15.3 15.3 0 0 0 1.064-.356c.365-.13.709-.25 1.031-.357l1.87-.584c.623-.217 1.257-.39 1.902-.52.172-.043.376-.064.613-.064.258-.022.483 0 .677.065a.692.692 0 0 1 .419.357c.107.15.118.378.032.68a.936.936 0 0 1-.387.487 2.762 2.762 0 0 1-.677.26 9.802 9.802 0 0 1-.773.162 3.315 3.315 0 0 0-.613.098c-.73.216-1.45.443-2.16.681l-2.128.649a29.98 29.98 0 0 1-1.193.324c-.43.13-.838.152-1.225.065a1.26 1.26 0 0 1-.483-.194c-.366-.282-.538-.541-.516-.78.021-.237.118-.475.29-.713h-.387a29.52 29.52 0 0 0-2.321.487c-.623.173-1.257.367-1.902.584a8.346 8.346 0 0 1-1.934.422 1.38 1.38 0 0 1-.71-.13c-.236-.087-.408-.27-.516-.552a.933.933 0 0 1 0-.681 2.94 2.94 0 0 1 .355-.682c-.623.368-1.214.682-1.773.941-.537.238-.946.411-1.225.52-.559.237-1.16.486-1.806.746-.644.26-1.29.378-1.934.357-.71-.043-1.139-.238-1.29-.584-.15-.346-.118-.779.097-1.298.194-.54.505-1.114.935-1.72.43-.627.881-1.222 1.354-1.784.495-.563.946-1.05 1.354-1.46.409-.433.677-.714.806-.844l.452-.454h-1.838c-.602 0-1.214.01-1.838.032-1.246.044-2.482.108-3.707.195a72.5 72.5 0 0 0-3.74.292c-.451.065-.892.13-1.322.195a9.827 9.827 0 0 0-1.354.227 2.966 2.966 0 0 0-.354.097.5.5 0 0 1-.355 0c-.236-.086-.344-.238-.322-.454 0-.238.107-.39.322-.454a42.176 42.176 0 0 1 7.963-1.266c2.73-.194 5.427-.313 8.092-.357a110.234 110.234 0 0 1 3.385-3.017c.28-.26.602-.584.967-.974.387-.41.774-.67 1.16-.778.216-.065.399-.054.549.032a.7.7 0 0 1 .387.357.839.839 0 0 1 .097.52.857.857 0 0 1-.258.518C22 2.032 21.345 2.594 20.7 3.157a46.164 46.164 0 0 0-1.902 1.687c.322 0 .623.043.903.13.258.064.483.173.677.324.215.151.365.379.451.681.064.26.032.487-.097.682a1.22 1.22 0 0 1-.483.39 1.17 1.17 0 0 1-.613.032c-.193-.065-.344-.206-.451-.422a3.976 3.976 0 0 0-.967-.227 5.912 5.912 0 0 0-1.032-.098l-.322.292c-.882.844-1.817 1.752-2.805 2.726-.967.973-1.73 2.022-2.29 3.147a17.082 17.082 0 0 0 2.322-.649 31.87 31.87 0 0 0 2.354-.94 44.605 44.605 0 0 0 2.288-1.104 27.073 27.073 0 0 0 2.096-1.265 89.168 89.168 0 0 1 2.482-2.466 66.22 66.22 0 0 1 2.612-2.369c.537-.476 1.085-.94 1.644-1.395a23.215 23.215 0 0 1 1.709-1.265c.236-.174.494-.282.773-.325.301-.065.548.054.742.357a.84.84 0 0 1 .064.649.795.795 0 0 1-.354.519Z"/><path d="M49.358 12.015c-.494.043-.988.13-1.483.26-.473.108-.956.216-1.45.324-1.29.303-2.569.595-3.837.876-1.268.26-2.558.454-3.869.584-.344.043-.71.076-1.096.097a6.607 6.607 0 0 1-1.128-.032 4.5 4.5 0 0 1-1.064-.26 2.66 2.66 0 0 1-.935-.519 2.07 2.07 0 0 1-.548-.681 1.89 1.89 0 0 1-.258-.811 1.72 1.72 0 0 1 .064-.812c.087-.28.248-.53.484-.746.15-.151.387-.27.71-.357.343-.108.72-.184 1.128-.227A7.73 7.73 0 0 1 37.3 9.68c.408.021.763.097 1.064.227.3.13.505.314.612.551.13.217.118.498-.032.844a1.11 1.11 0 0 1-.58.552 3.425 3.425 0 0 1-.87.227 7.713 7.713 0 0 1-1 0 22.515 22.515 0 0 1-.903-.13c.086.087.258.162.516.227.258.043.526.076.806.098.3.021.57.032.806.032h.483a25.333 25.333 0 0 0 3.128-.454 132.83 132.83 0 0 0 3.127-.682 359.79 359.79 0 0 0 2.224-.519 16.538 16.538 0 0 1 2.257-.422c.322-.021.591.054.806.227.215.173.355.379.419.617a.704.704 0 0 1-.097.616c-.107.195-.344.303-.709.325Z"/><path d="M59.089 12.015c-1.096.021-2.214.054-3.353.097a12.478 12.478 0 0 1-3.353-.39.57.57 0 0 1-.258-.064 4.017 4.017 0 0 1-.58 1.07 4.287 4.287 0 0 1-.806.844 2.95 2.95 0 0 1-1 .52 1.861 1.861 0 0 1-1.031.032c-.322-.087-.559-.249-.71-.487a1.544 1.544 0 0 1-.29-.811 2.223 2.223 0 0 1 .13-.909c.085-.302.214-.573.386-.81.28-.347.634-.606 1.064-.78a1.9 1.9 0 0 1 1.29-.064c.043-.303.215-.541.516-.714.3-.173.623-.151.967.065.322.195.666.346 1.031.454a7.2 7.2 0 0 0 1.193.162c.409.022.806.033 1.193.033.408-.022.795-.033 1.16-.033.43 0 .893-.021 1.387-.065a3.099 3.099 0 0 1 1.354.098c.236.086.398.227.484.422a.81.81 0 0 1 .096.584.856.856 0 0 1-.258.519c-.15.151-.354.227-.612.227Zm-9.64.422c.065-.065.194-.098.387-.098v-.292a1.893 1.893 0 0 1-.193.162.41.41 0 0 0-.194.228Z"/></g><defs><clipPath id="a"><path fill="#fff" d="M0 0h60v14.45H0z"/></clipPath></defs></svg>