<svg xmlns="http://www.w3.org/2000/svg" width="60" height="14" fill="none"><g fill="#999" clip-path="url(#a)"><path d="m15.925 10.36-2.343-7.027a2.418 2.418 0 0 0-4.004-.946l-.757.761-.76-.76a2.417 2.417 0 0 0-4.003.945L1.716 10.36a.73.73 0 1 0 1.383.46L5.44 3.794a.96.96 0 0 1 1.589-.375l.907.908A4.447 4.447 0 0 1 5.8 6.241a.73.73 0 0 0 0 1.339 4.456 4.456 0 0 1 2.35 2.35.728.728 0 0 0 1.34 0 4.455 4.455 0 0 1 2.35-2.35.729.729 0 0 0 0-1.34h-.001a4.448 4.448 0 0 1-2.134-1.914l.907-.907a.96.96 0 0 1 1.59.375l2.341 7.028a.729.729 0 0 0 1.383-.462ZM9.407 7.5a5.906 5.906 0 0 0-.586.684A5.966 5.966 0 0 0 7.549 6.91a5.961 5.961 0 0 0 1.272-1.27c.357.486.786.915 1.271 1.272a5.924 5.924 0 0 0-.685.586Zm10.488 2.49a.242.242 0 0 1-.073-.179V2.973a.267.267 0 0 1 .068-.19.24.24 0 0 1 .184-.073h.85c.134 0 .239.067.316.2l2.027 3.76 2.027-3.76c.077-.133.182-.2.315-.2h.84a.251.251 0 0 1 .263.263V9.81a.24.24 0 0 1-.073.184.266.266 0 0 1-.19.068h-.903a.249.249 0 0 1-.233-.155.252.252 0 0 1-.019-.097V5.295l-1.46 2.774c-.077.154-.192.231-.347.231h-.44c-.148 0-.267-.077-.358-.23l-1.46-2.775v4.517a.251.251 0 0 1-.068.179.236.236 0 0 1-.184.073h-.904a.24.24 0 0 1-.178-.074Zm8.353-.494c-.46-.448-.702-1.085-.73-1.912l-.01-.262c0-.876.229-1.565.687-2.07.459-.504 1.094-.756 1.907-.756.833 0 1.476.252 1.927.756.452.505.678 1.177.678 2.017v.22a.244.244 0 0 1-.074.18.256.256 0 0 1-.189.073h-3.487v.084c.014.392.12.716.32.972.2.255.474.383.825.383.399 0 .725-.161.976-.483a.57.57 0 0 1 .148-.142.43.43 0 0 1 .178-.027h.925a.26.26 0 0 1 .162.054.174.174 0 0 1 .069.147c0 .168-.1.366-.3.593-.2.228-.485.426-.856.594-.371.168-.802.252-1.292.252-.784 0-1.405-.225-1.864-.673Zm3.01-2.647v-.02c0-.414-.104-.745-.31-.994-.207-.248-.49-.373-.846-.373-.357 0-.637.124-.84.373-.204.25-.305.58-.305.993v.021h2.3Zm2.159 3.141a.242.242 0 0 1-.074-.179V4.864a.255.255 0 0 1 .155-.245.242.242 0 0 1 .097-.018h.862a.252.252 0 0 1 .262.263v.431c.35-.462.855-.693 1.513-.693h.441a.235.235 0 0 1 .252.252v.767a.253.253 0 0 1-.068.178.238.238 0 0 1-.184.074h-.83c-.329 0-.588.094-.777.284-.189.189-.283.448-.283.777v2.878a.252.252 0 0 1-.253.252h-.933a.244.244 0 0 1-.18-.074Zm4.298-.462c-.46-.427-.703-1.019-.73-1.776l-.011-.42.01-.42c.029-.756.272-1.348.73-1.775.46-.427 1.074-.64 1.844-.64.553 0 1.02.098 1.403.293.381.196.665.436.85.72.186.284.286.555.3.815a.205.205 0 0 1-.069.178.26.26 0 0 1-.183.074h-.934c-.077 0-.133-.016-.168-.048a.499.499 0 0 1-.105-.173c-.105-.267-.243-.46-.415-.578-.172-.118-.39-.178-.656-.178-.358 0-.636.112-.836.336-.2.224-.306.567-.32 1.03l-.01.388.01.347c.042.91.428 1.366 1.156 1.365.273 0 .493-.057.662-.173.168-.116.304-.31.41-.583a.419.419 0 0 1 .1-.168c.038-.036.095-.053.172-.053h.934a.262.262 0 0 1 .24.154.205.205 0 0 1 .012.098c-.014.245-.112.509-.293.793-.182.283-.462.527-.841.73-.378.203-.85.304-1.418.304-.771 0-1.386-.213-1.844-.64Zm5.515.01c-.371-.42-.557-.998-.556-1.734v-2.95a.24.24 0 0 1 .073-.185.254.254 0 0 1 .179-.068h.944a.251.251 0 0 1 .253.252v2.889c0 .861.374 1.292 1.124 1.292.364 0 .653-.116.866-.347.214-.23.32-.546.32-.945V4.853a.24.24 0 0 1 .074-.184.253.253 0 0 1 .178-.068h.935a.236.236 0 0 1 .252.252v4.958a.252.252 0 0 1-.068.179.236.236 0 0 1-.184.073h-.872a.25.25 0 0 1-.252-.252v-.43c-.385.525-.966.787-1.743.787-.644 0-1.151-.21-1.523-.63Zm5.628.452a.242.242 0 0 1-.073-.179V4.864a.255.255 0 0 1 .155-.245.242.242 0 0 1 .097-.018h.861a.252.252 0 0 1 .263.263v.431c.35-.462.854-.693 1.512-.693h.44a.235.235 0 0 1 .252.252v.767a.254.254 0 0 1-.069.178.24.24 0 0 1-.183.074h-.83c-.33 0-.589.094-.778.284-.189.189-.283.448-.283.777v2.878a.252.252 0 0 1-.252.252h-.935a.24.24 0 0 1-.177-.074Zm5.162 2.006a.195.195 0 0 1-.069-.147.417.417 0 0 1 .043-.168l.83-1.943-2.018-4.759a.391.391 0 0 1-.042-.147.279.279 0 0 1 .074-.163.206.206 0 0 1 .157-.068h.872c.126 0 .217.067.273.2l1.397 3.424 1.418-3.424c.07-.133.168-.2.294-.2h.85a.213.213 0 0 1 .158.063.201.201 0 0 1 .063.147.42.42 0 0 1-.042.168l-2.971 6.88c-.056.134-.154.2-.294.2h-.84a.22.22 0 0 1-.153-.063Z"/></g><defs><clipPath id="a"><path fill="#fff" d="M1.678 1.678h56.643V12.06H1.678z"/></clipPath></defs></svg>