<svg xmlns="http://www.w3.org/2000/svg" width="121" height="49" fill="none"><path fill="#000" d="M39.475 18.923V30.6L28.74 36.438V24.761l10.736-5.838Zm-10.736 5.838v11.677l-10.757 5.84V30.6l10.758-5.84ZM17.982 42.277 7.246 36.438V24.761L17.982 30.6v11.677ZM7.246 13.084l10.736-5.839 10.757 5.84-10.757 5.838-10.736-5.839ZM17.982 30.6 7.246 24.76V13.084l10.736 5.839V30.6Zm36.581-8.29v-1.076l6.592-9.84H54.49V10.08h8.431v1.075l-6.592 9.84h6.664v1.314h-8.431Zm18.941-12.23h1.48v8.097c0 .836-.197 1.582-.59 2.24a4.14 4.14 0 0 1-1.655 1.546c-.712.374-1.548.561-2.508.561s-1.795-.187-2.508-.561a4.183 4.183 0 0 1-1.66-1.547c-.39-.657-.585-1.403-.585-2.24V10.08h1.481v7.978c0 .597.131 1.128.394 1.594.263.462.637.826 1.123 1.093.49.262 1.075.394 1.755.394.681 0 1.266-.132 1.756-.394.49-.267.864-.631 1.123-1.093.262-.466.394-.997.394-1.595V10.08Zm4.438 0h1.767l4.156 10.151h.144l4.156-10.151h1.767v12.23h-1.385v-9.292h-.12l-3.821 9.291h-1.338l-3.822-9.291h-.119v9.291h-1.385V10.08Zm15.461 12.23H91.85l4.49-12.23h1.53l4.49 12.23h-1.553l-3.654-10.295h-.096l-3.654 10.294Zm.573-4.778h6.258v1.314h-6.258v-1.314Zm10.289 4.778V10.08h4.132c.955 0 1.739.163 2.352.49.614.322 1.067.766 1.362 1.331.295.565.442 1.208.442 1.929 0 .72-.147 1.36-.442 1.917-.295.557-.746.995-1.356 1.313-.609.315-1.387.472-2.334.472h-3.344v-1.337h3.296c.653 0 1.178-.096 1.576-.287.402-.191.693-.462.872-.812.183-.355.275-.777.275-1.266 0-.49-.092-.918-.275-1.284a1.873 1.873 0 0 0-.878-.848c-.402-.203-.933-.305-1.594-.305h-2.603V22.31h-1.481Zm5.756-5.494 3.01 5.493h-1.72l-2.962-5.494h1.672ZM64.81 30.717h-1.482a3.08 3.08 0 0 0-1.248-1.935 3.346 3.346 0 0 0-1.02-.502 4.077 4.077 0 0 0-1.171-.167 3.73 3.73 0 0 0-2.012.561c-.597.375-1.073.926-1.428 1.654-.35.729-.525 1.623-.525 2.682s.175 1.952.526 2.68c.354.73.83 1.28 1.427 1.655a3.73 3.73 0 0 0 2.012.561 4.08 4.08 0 0 0 1.17-.167 3.428 3.428 0 0 0 1.022-.496 3.138 3.138 0 0 0 1.248-1.94h1.48a4.931 4.931 0 0 1-.609 1.678c-.294.493-.66.913-1.098 1.26-.438.342-.93.603-1.475.782a5.506 5.506 0 0 1-1.738.268c-1.043 0-1.97-.254-2.783-.764-.812-.51-1.45-1.234-1.916-2.174-.466-.939-.699-2.054-.699-3.343 0-1.29.233-2.405.699-3.344.465-.94 1.104-1.664 1.916-2.174.813-.51 1.74-.764 2.783-.764a5.5 5.5 0 0 1 1.738.268c.545.18 1.037.442 1.475.789.438.342.804.76 1.098 1.254.295.49.498 1.049.61 1.678Zm12.71 2.293c0 1.29-.232 2.404-.698 3.343-.466.94-1.105 1.664-1.917 2.174s-1.74.764-2.782.764c-1.043 0-1.97-.254-2.783-.764-.812-.51-1.451-1.234-1.917-2.174-.466-.939-.698-2.054-.698-3.343 0-1.29.233-2.405.698-3.344.466-.94 1.105-1.664 1.917-2.174s1.74-.764 2.783-.764 1.97.255 2.782.764c.812.51 1.451 1.234 1.917 2.174.466.94.699 2.054.699 3.344Zm-1.432 0c0-1.06-.177-1.953-.532-2.681-.35-.729-.826-1.28-1.427-1.655a3.7 3.7 0 0 0-2.006-.56 3.73 3.73 0 0 0-2.013.56c-.597.375-1.073.926-1.427 1.654-.35.729-.525 1.623-.525 2.682s.175 1.952.525 2.68c.354.73.83 1.28 1.427 1.655a3.73 3.73 0 0 0 2.013.561 3.7 3.7 0 0 0 2.006-.561c.601-.374 1.077-.926 1.427-1.654.355-.729.532-1.623.532-2.681Zm13.62-6.115v12.23h-1.433l-6.664-9.603h-.12v9.602h-1.48V26.895h1.433l6.688 9.626h.12v-9.626h1.456Zm9.652 3.057a1.874 1.874 0 0 0-.873-1.409c-.51-.334-1.134-.502-1.874-.502-.542 0-1.016.088-1.422.263a2.27 2.27 0 0 0-.943.723 1.732 1.732 0 0 0-.335 1.045c0 .326.078.607.233.842.16.23.363.424.61.579.246.151.505.277.776.376.27.096.52.173.746.233l1.242.334c.319.084.673.2 1.063.347.394.147.77.348 1.129.603.362.25.66.573.895.967s.353.878.353 1.451c0 .661-.174 1.258-.52 1.792-.342.533-.844.957-1.505 1.272-.657.314-1.455.471-2.394.471-.876 0-1.634-.141-2.275-.424-.637-.282-1.139-.676-1.505-1.182a3.373 3.373 0 0 1-.615-1.762h1.529c.04.462.195.844.465 1.147.275.298.621.521 1.04.669.421.143.875.215 1.36.215.566 0 1.074-.092 1.523-.275.45-.187.807-.446 1.07-.776a1.84 1.84 0 0 0 .393-1.17c0-.407-.113-.737-.34-.992a2.497 2.497 0 0 0-.896-.62c-.37-.16-.77-.3-1.2-.419l-1.505-.43c-.955-.275-1.711-.667-2.269-1.176-.557-.51-.836-1.177-.836-2 0-.685.185-1.282.556-1.792a3.688 3.688 0 0 1 1.504-1.194c.633-.287 1.34-.43 2.12-.43.788 0 1.49.141 2.102.424.613.278 1.099.66 1.457 1.146.362.486.553 1.037.573 1.654h-1.433Z"/></svg>