<svg xmlns="http://www.w3.org/2000/svg" width="120" height="23" fill="none"><g fill="#282828" clip-path="url(#a)"><path d="M30.18 18.411 25.219 3.524a5.12 5.12 0 0 0-8.482-2.002l-1.605 1.612-1.609-1.612a5.12 5.12 0 0 0-8.48 2.002L.079 18.411a1.545 1.545 0 1 0 2.93.977L7.971 4.501a2.034 2.034 0 0 1 3.366-.797l1.921 1.926a9.421 9.421 0 0 1-4.523 4.055H8.73a1.545 1.545 0 0 0 0 2.837 9.44 9.44 0 0 1 4.98 4.98 1.543 1.543 0 0 0 2.838 0 9.437 9.437 0 0 1 4.979-4.98 1.545 1.545 0 0 0 0-2.838h-.004a9.423 9.423 0 0 1-4.52-4.055l1.92-1.921a2.034 2.034 0 0 1 3.368.794l4.962 14.888a1.544 1.544 0 0 0 2.93-.977l-.002-.002Zm-13.806-6.06c-.45.451-.866.936-1.243 1.45a12.639 12.639 0 0 0-2.694-2.695 12.63 12.63 0 0 0 2.694-2.69 12.627 12.627 0 0 0 2.694 2.693c-.514.377-1 .792-1.45 1.242Zm22.219 5.277a.512.512 0 0 1-.156-.378V2.763a.565.565 0 0 1 .145-.401.508.508 0 0 1 .389-.155h1.803c.281 0 .504.14.667.422l4.295 7.968 4.295-7.968c.163-.282.385-.423.667-.422h1.78a.532.532 0 0 1 .557.556V17.25a.508.508 0 0 1-.155.39.565.565 0 0 1-.401.144h-1.914a.53.53 0 0 1-.534-.534V7.682l-3.093 5.877c-.164.327-.409.49-.735.49h-.935c-.31 0-.563-.163-.756-.49l-3.094-5.877v9.57a.533.533 0 0 1-.144.378.504.504 0 0 1-.39.156H38.97a.514.514 0 0 1-.377-.158Zm17.695-1.045c-.972-.95-1.488-2.3-1.547-4.051l-.022-.556c0-1.855.486-3.316 1.457-4.384.972-1.068 2.319-1.602 4.04-1.603 1.765 0 3.126.534 4.083 1.603.957 1.068 1.436 2.493 1.436 4.273v.467a.518.518 0 0 1-.156.378.543.543 0 0 1-.4.156H57.79v.178c.03.831.256 1.517.678 2.059.423.54 1.005.812 1.747.812.846 0 1.536-.341 2.07-1.024.134-.163.237-.263.312-.3.074-.038.2-.057.378-.057h1.958a.55.55 0 0 1 .345.113.371.371 0 0 1 .145.312c0 .356-.212.775-.635 1.257-.422.483-1.027.902-1.813 1.258-.787.356-1.7.534-2.738.534-1.66-.001-2.977-.476-3.95-1.425Zm6.376-5.608v-.045c0-.875-.22-1.576-.657-2.103-.438-.527-1.035-.791-1.791-.792-.757 0-1.35.264-1.78.792-.43.527-.646 1.228-.646 2.103v.045h4.874Zm4.575 6.653a.511.511 0 0 1-.156-.378V6.768a.54.54 0 0 1 .329-.518.514.514 0 0 1 .205-.039h1.825a.533.533 0 0 1 .556.557v.914c.742-.98 1.81-1.47 3.205-1.47h.934a.498.498 0 0 1 .534.535V8.37a.536.536 0 0 1-.144.379.505.505 0 0 1-.39.155H72.38c-.697 0-1.246.2-1.646.602-.4.4-.601.95-.601 1.646v6.098a.533.533 0 0 1-.535.534H67.62a.513.513 0 0 1-.381-.157Zm9.104-.978c-.971-.905-1.487-2.158-1.547-3.762l-.022-.89.022-.89c.06-1.602.576-2.855 1.547-3.76.972-.906 2.274-1.358 3.906-1.357 1.172 0 2.162.207 2.97.622.81.414 1.41.923 1.803 1.526.393.6.605 1.175.634 1.724a.432.432 0 0 1-.144.378.552.552 0 0 1-.39.156h-1.977c-.163 0-.282-.033-.356-.1-.075-.067-.149-.19-.223-.367-.222-.565-.515-.973-.879-1.224s-.827-.377-1.39-.379c-.757 0-1.347.238-1.77.712-.422.475-.648 1.202-.678 2.182l-.022.823.022.735c.09 1.929.905 2.893 2.448 2.893.578 0 1.045-.123 1.402-.367.357-.245.646-.657.868-1.235a.885.885 0 0 1 .212-.357c.08-.075.203-.113.366-.113h1.978a.554.554 0 0 1 .508.327.435.435 0 0 1 .026.207c-.03.52-.236 1.08-.621 1.68-.386.601-.98 1.117-1.781 1.547-.801.43-1.802.645-3.004.645-1.634 0-2.937-.452-3.908-1.357Zm11.686.02c-.787-.89-1.18-2.114-1.18-3.672V6.745a.51.51 0 0 1 .534-.534h2.002a.532.532 0 0 1 .534.534v6.12c0 1.825.794 2.737 2.381 2.738.772 0 1.384-.245 1.836-.735.453-.49.679-1.157.678-2.003v-6.12a.508.508 0 0 1 .156-.389.536.536 0 0 1 .378-.145h1.98a.499.499 0 0 1 .535.534V17.25a.533.533 0 0 1-.145.378.503.503 0 0 1-.39.156h-1.846a.532.532 0 0 1-.534-.534v-.912c-.816 1.112-2.048 1.669-3.694 1.669-1.364 0-2.439-.445-3.225-1.335Zm11.923.958a.513.513 0 0 1-.156-.378V6.768a.542.542 0 0 1 .329-.518.51.51 0 0 1 .205-.039h1.824a.535.535 0 0 1 .557.557v.914c.742-.98 1.81-1.47 3.205-1.47h.93a.497.497 0 0 1 .534.535V8.37a.537.537 0 0 1-.145.379.509.509 0 0 1-.389.155h-1.758c-.698 0-1.247.2-1.647.602-.401.4-.601.95-.601 1.646v6.098a.532.532 0 0 1-.534.534h-1.981a.51.51 0 0 1-.373-.157Zm10.934 4.25a.412.412 0 0 1-.144-.311.88.88 0 0 1 .089-.357l1.758-4.117-4.274-10.08a.83.83 0 0 1-.089-.313.588.588 0 0 1 .156-.344.433.433 0 0 1 .333-.145h1.848c.267 0 .459.141.578.423l2.96 7.255 3.004-7.255c.148-.282.355-.423.622-.423h1.802a.453.453 0 0 1 .334.133.433.433 0 0 1 .133.312.897.897 0 0 1-.088.356l-6.296 14.577c-.118.282-.326.423-.621.423h-1.781a.466.466 0 0 1-.324-.134Z"/></g><defs><clipPath id="a"><path fill="#fff" d="M0 .02h120v21.992H0z"/></clipPath></defs></svg>