<svg xmlns="http://www.w3.org/2000/svg" width="16" height="16" fill="none"><path fill="#fff" d="M.174.994C.013.472-.068.212.072.072s.4-.06.922.102l4.079 1.263c.62.192 1.105.677 1.297 1.297L8 8 2.734 6.37a1.966 1.966 0 0 1-1.297-1.297L.174.994Z"/><path fill="#fff" d="m8 8 5.266 1.63c.62.192 1.105.677 1.297 1.297l1.263 4.079c.161.521.242.782.102.922s-.4.06-.922-.102l-4.079-1.263a1.967 1.967 0 0 1-1.297-1.297L8 8l-1.63 5.266a1.966 1.966 0 0 1-1.297 1.297L.994 15.826c-.521.161-.782.242-.922.102s-.06-.4.102-.922l1.263-4.079A1.966 1.966 0 0 1 2.734 9.63L8 8l1.63-5.266a1.966 1.966 0 0 1 1.297-1.297L15.006.174c.521-.161.782-.242.922-.102s.06.4-.102.922l-1.263 4.079a1.967 1.967 0 0 1-1.297 1.297L8 8Z"/></svg>