<svg xmlns="http://www.w3.org/2000/svg" width="139" height="49" fill="none"><g fill="#000" clip-path="url(#a)"><path d="M70.368 13.187a40.847 40.847 0 0 0-6.991 5.165 181.808 181.808 0 0 0-6.397 5.988 116.324 116.324 0 0 0-3.496 3.518l-3.42 3.593a37.375 37.375 0 0 1-1.935 2.096 40.057 40.057 0 0 0-1.934 2.096 30.7 30.7 0 0 0 3.05-.898 83.319 83.319 0 0 1 2.826-.898c.744-.15 1.537-.35 2.38-.6a23.344 23.344 0 0 1 2.53-.598c.842-.2 1.685-.3 2.528-.3.893-.05 1.71.076 2.455.375.942.35 1.512.948 1.71 1.797.149.548.1 1.072-.149 1.572a35.39 35.39 0 0 0 2.455-.824c.843-.3 1.636-.574 2.38-.823l4.314-1.348c1.438-.499 2.9-.898 4.388-1.197.397-.1.868-.15 1.414-.15.595-.05 1.115 0 1.561.15.447.15.769.424.967.823.248.35.273.873.075 1.572-.15.45-.446.823-.893 1.123-.446.25-.967.449-1.562.599-.595.15-1.19.274-1.785.374-.595.05-1.066.125-1.413.224a146.03 146.03 0 0 0-4.984 1.572l-4.908 1.498c-.843.25-1.76.499-2.752.748-.992.3-1.934.35-2.827.15-.347-.05-.719-.2-1.115-.45-.843-.648-1.24-1.247-1.19-1.796.05-.549.272-1.098.669-1.647h-.893c-1.785.3-3.57.674-5.355 1.123-1.438.4-2.9.849-4.388 1.348a19.276 19.276 0 0 1-4.463.973 3.18 3.18 0 0 1-1.636-.3c-.546-.2-.942-.623-1.19-1.272-.198-.55-.198-1.073 0-1.572.198-.55.47-1.073.818-1.572a47.395 47.395 0 0 1-4.09 2.17 68.61 68.61 0 0 1-2.827 1.198c-1.29.55-2.678 1.123-4.166 1.722-1.487.599-2.975.873-4.462.823-1.637-.1-2.628-.549-2.975-1.347-.347-.798-.273-1.797.223-2.994.446-1.248 1.165-2.57 2.157-3.968a52.55 52.55 0 0 1 3.124-4.117 76.08 76.08 0 0 1 3.124-3.368 135.97 135.97 0 0 1 1.859-1.947l1.041-1.047h-4.24c-1.388 0-2.8.024-4.239.074-2.876.1-5.727.25-8.553.45-2.876.15-5.752.374-8.628.673-1.042.15-2.058.3-3.05.45a22.68 22.68 0 0 0-3.124.523c-.248.05-.52.125-.818.225-.297.1-.57.1-.818 0-.545-.2-.793-.55-.744-1.048 0-.549.248-.898.744-1.048a97.306 97.306 0 0 1 18.372-2.92c6.297-.449 12.52-.723 18.669-.823a245.06 245.06 0 0 1 3.867-3.518 280.984 280.984 0 0 1 3.942-3.444 47.056 47.056 0 0 0 2.232-2.245c.892-.948 1.785-1.547 2.677-1.797.496-.15.918-.125 1.264.075.397.15.695.424.893.824.199.349.273.748.224 1.197-.05.45-.249.849-.596 1.198a368.814 368.814 0 0 0-4.537 3.892 106.578 106.578 0 0 0-4.388 3.893c.744 0 1.438.1 2.083.3a4.14 4.14 0 0 1 1.561.748c.496.35.843.873 1.042 1.572.148.599.074 1.123-.223 1.572-.298.4-.67.699-1.116.898-.447.15-.917.175-1.413.075-.447-.15-.794-.474-1.042-.973-.644-.25-1.388-.424-2.231-.524a13.64 13.64 0 0 0-2.38-.225l-.744.674a645.965 645.965 0 0 0-6.47 6.288c-2.232 2.246-3.992 4.666-5.282 7.261 1.736-.35 3.52-.848 5.356-1.497a72.355 72.355 0 0 0 5.43-2.17 102.778 102.778 0 0 0 5.28-2.546 62.143 62.143 0 0 0 4.835-2.92 205.69 205.69 0 0 1 5.727-5.688 152.661 152.661 0 0 1 6.025-5.465c1.24-1.098 2.504-2.17 3.793-3.219a53.582 53.582 0 0 1 3.942-2.92 4.03 4.03 0 0 1 1.785-.748c.694-.15 1.264.125 1.71.824.249.449.298.948.15 1.497-.1.499-.373.898-.819 1.197Z"/><path d="M113.875 35.72c-1.14.1-2.281.299-3.421.598-1.091.25-2.207.5-3.347.749a731.499 731.499 0 0 1-8.851 2.021 87.457 87.457 0 0 1-8.925 1.347c-.794.1-1.637.175-2.53.225-.842.05-1.71.025-2.603-.075-.843-.1-1.66-.3-2.454-.599a6.137 6.137 0 0 1-2.157-1.197 4.776 4.776 0 0 1-1.264-1.572 4.359 4.359 0 0 1-.596-1.872 3.958 3.958 0 0 1 .149-1.871c.199-.649.57-1.223 1.116-1.722.347-.35.892-.624 1.636-.823.793-.25 1.661-.424 2.603-.524.943-.1 1.885-.125 2.827-.075s1.76.225 2.454.524c.695.3 1.165.724 1.413 1.272.298.5.273 1.148-.074 1.947a2.569 2.569 0 0 1-1.339 1.272 7.889 7.889 0 0 1-2.008.524c-.744.05-1.513.05-2.306 0-.793-.1-1.487-.2-2.082-.3.198.2.595.375 1.19.525.595.1 1.215.175 1.86.224.694.05 1.313.075 1.859.075h1.115c2.43-.2 4.835-.549 7.215-1.048 2.43-.499 4.835-1.023 7.215-1.572 1.735-.399 3.446-.798 5.132-1.197a38.168 38.168 0 0 1 5.206-.974c.744-.05 1.364.125 1.86.524.496.4.818.874.967 1.423.148.499.074.973-.223 1.422-.248.45-.794.699-1.637.749Z"/><path d="M136.323 35.72c-2.529.05-5.108.124-7.735.224-2.629.05-5.207-.25-7.736-.898-.198 0-.397-.05-.595-.15a9.285 9.285 0 0 1-1.339 2.47 9.875 9.875 0 0 1-1.859 1.947 6.801 6.801 0 0 1-2.306 1.197 4.294 4.294 0 0 1-2.38.075c-.744-.2-1.29-.574-1.637-1.123a3.57 3.57 0 0 1-.669-1.871 5.135 5.135 0 0 1 .298-2.096 5.914 5.914 0 0 1 .892-1.871 5.95 5.95 0 0 1 2.455-1.797c.991-.4 1.983-.45 2.975-.15.099-.698.496-1.247 1.19-1.647.694-.399 1.438-.349 2.231.15.744.45 1.537.799 2.38 1.048.893.2 1.81.324 2.752.374.943.05 1.86.075 2.752.075a50.75 50.75 0 0 1 2.678-.075c.992 0 2.058-.05 3.198-.15 1.141-.149 2.182-.074 3.124.225.546.2.918.524 1.116.973.248.45.322.899.223 1.348-.05.449-.248.848-.595 1.198-.347.349-.818.523-1.413.523Zm-22.239.973c.148-.15.446-.225.892-.225v-.674c-.099.1-.248.225-.446.375-.199.1-.347.274-.446.524Z"/></g><defs><clipPath id="a"><path fill="#fff" d="M0 8h138.426v33.338H0z"/></clipPath></defs></svg>