<svg xmlns="http://www.w3.org/2000/svg" width="132" height="32" fill="none"><g fill="#282828" clip-path="url(#a)"><path d="M52.404 22.18v3.687H37.05v-2.91l9.25-10.424h-9.25V8.847h15.085v3.05L43.228 22.18h9.176Zm17.692-7.3v10.992H65.54v-2.346h-.1c-.57.904-2.245 2.514-5.564 2.514s-5.63-1.877-5.63-4.894c0-3.285 2.48-5.797 9.618-5.797h1.676v-.503c0-1.844-1.139-2.95-2.982-2.95-1.81 0-2.916.972-3.05 2.447h-4.491c.066-3.82 3.15-5.933 7.54-5.933 4.86 0 7.538 2.383 7.538 6.47Zm-4.555 4.556V18.23H63.9c-3.855 0-4.96 1.173-4.96 2.58 0 1.242 1.005 2.01 2.584 2.01 2.241 0 4.017-1.506 4.017-3.384Zm24.669-4.02v10.457h-4.727v-9.45c0-2.38-1.173-3.855-3.015-3.855-2.38 0-4.023 1.643-4.023 4.659v8.648H73.72V8.848h4.725v3.15c1.074-2.447 3.017-3.583 5.463-3.583 4.056-.004 6.302 2.846 6.302 7.001Zm9.216-2.882v7.005c0 1.742 1.039 2.687 2.749 2.687.703 0 1.575-.101 2.781-.738v3.988c-1.073.57-2.413.738-3.52.738-4.054 0-6.736-2.38-6.736-6v-7.676h-3.05v-3.69h.068c2.047 0 2.982-.838 2.982-2.815V3.757h4.726v5.095h5.865v3.682h-5.865ZM109.76.621h.153a2.788 2.788 0 1 1 0 5.577h-.153a2.79 2.79 0 0 1-2.79-2.788 2.79 2.79 0 0 1 2.79-2.789Zm-2.287 8.226h4.718v17.025h-4.722l.004-17.025Zm16.216 17.46c-5.428 0-8.814-3.653-8.814-8.982 0-5.262 3.386-8.915 8.814-8.915 4.592 0 7.776 2.649 8.245 6.91h-4.658c-.336-1.944-1.542-3.217-3.653-3.217-2.649 0-4.19 2.11-4.19 5.228 0 3.116 1.541 5.227 4.19 5.227 2.212 0 3.419-1.34 3.754-3.454h4.624c-.364 4.355-3.552 7.203-8.312 7.203ZM24.931 6.044a4.021 4.021 0 0 1-.831 6.28A19.85 19.85 0 0 1 0 9.245l5.61-5.726a11.914 11.914 0 0 0 14.404 1.88 4.032 4.032 0 0 1 4.914.639l.002.006Z"/><path d="M24.907 6.02a4.01 4.01 0 0 0-5.669 0L2.221 23.035a4.01 4.01 0 0 0 5.67 5.67l17.016-17.017a4.01 4.01 0 0 0 0-5.67Z"/><path d="M2.2 28.673a4.022 4.022 0 0 1 .83-6.278 19.855 19.855 0 0 1 24.1 3.077L21.517 31.2a11.914 11.914 0 0 0-14.403-1.88 4.033 4.033 0 0 1-4.914-.647Z"/></g><defs><clipPath id="a"><path fill="#fff" d="M.003.621h132v30.58h-132z"/></clipPath></defs></svg>