<svg xmlns="http://www.w3.org/2000/svg" width="151" height="39" fill="none"><g fill="#282828" clip-path="url(#a)"><path d="M59.944 25.971v4.1H42.381v-3.237l10.582-11.59H42.38v-4.098h17.256v3.392L49.447 25.97h10.497Zm20.236-8.118v12.223h-5.21v-2.61h-.114c-.653 1.007-2.569 2.796-6.365 2.796-3.797 0-6.44-2.087-6.44-5.441 0-3.652 2.836-6.446 11.002-6.446h1.917v-.559c0-2.05-1.302-3.279-3.412-3.279-2.07 0-3.335 1.08-3.489 2.72h-5.137c.076-4.248 3.603-6.597 8.626-6.597 5.56 0 8.623 2.65 8.623 7.193Zm-5.21 5.067v-1.34h-1.878c-4.41 0-5.674 1.304-5.674 2.87 0 1.38 1.15 2.233 2.956 2.233 2.565 0 4.596-1.675 4.596-3.762Zm28.223-4.47v11.627h-5.406V19.569c0-2.646-1.343-4.286-3.45-4.286-2.722 0-4.602 1.827-4.602 5.18v9.615H84.33V11.146h5.405v3.503c1.228-2.72 3.451-3.984 6.25-3.984 4.64-.004 7.208 3.164 7.208 7.785Zm10.543-3.205v7.788c0 1.938 1.188 2.988 3.144 2.988.805 0 1.801-.113 3.181-.821v4.434c-1.228.635-2.76.821-4.026.821-4.638 0-7.706-2.646-7.706-6.67v-8.536h-3.489v-4.103h.077c2.342 0 3.412-.932 3.412-3.13v-2.53h5.407v5.664h6.709v4.095h-6.709ZM125.554 2h.176a3.24 3.24 0 0 1 2.256.908c.598.582.934 1.37.934 2.193 0 .407-.082.81-.243 1.187-.16.376-.395.718-.691 1.006a3.205 3.205 0 0 1-1.035.672 3.273 3.273 0 0 1-1.221.235h-.176a3.27 3.27 0 0 1-1.221-.235 3.194 3.194 0 0 1-1.035-.672 3.11 3.11 0 0 1-.692-1.006 3.031 3.031 0 0 1 .692-3.38A3.237 3.237 0 0 1 125.554 2Zm-2.616 9.146h5.397v18.93h-5.401l.004-18.93Zm18.551 19.414c-6.21 0-10.083-4.062-10.083-9.987 0-5.851 3.873-9.913 10.083-9.913 5.253 0 8.895 2.945 9.432 7.682h-5.329c-.384-2.16-1.764-3.576-4.179-3.576-3.03 0-4.793 2.347-4.793 5.813 0 3.465 1.763 5.812 4.793 5.812 2.531 0 3.911-1.489 4.294-3.84h5.29c-.416 4.842-4.063 8.009-9.508 8.009ZM28.517 8.03a4.453 4.453 0 0 1 1.077 1.716c.221.643.288 1.328.196 2a4.398 4.398 0 0 1-.725 1.883 4.549 4.549 0 0 1-1.5 1.383A23.251 23.251 0 0 1 13.18 17.88c-4.99-.62-9.626-2.832-13.182-6.29l6.418-6.367a13.783 13.783 0 0 0 7.873 3.767c2.98.378 6.004-.211 8.603-1.677a4.722 4.722 0 0 1 2.937-.583 4.663 4.663 0 0 1 2.685 1.294l.003.007Z"/><path d="M28.49 8.002a4.655 4.655 0 0 0-3.243-1.305c-1.216 0-2.383.47-3.243 1.305L2.538 26.922a4.396 4.396 0 0 0-1.343 3.152c0 1.182.483 2.316 1.343 3.152a4.61 4.61 0 0 0 1.488.967 4.698 4.698 0 0 0 3.51 0 4.594 4.594 0 0 0 1.487-.967l19.466-18.92a4.45 4.45 0 0 0 .995-1.447 4.347 4.347 0 0 0 0-3.411 4.45 4.45 0 0 0-.995-1.446Z"/><path d="M2.513 33.19a4.45 4.45 0 0 1-1.078-1.714 4.353 4.353 0 0 1-.196-2c.091-.674.34-1.317.725-1.883a4.549 4.549 0 0 1 1.5-1.383 23.257 23.257 0 0 1 14.385-2.867c4.99.62 9.626 2.831 13.183 6.288L24.61 36a13.783 13.783 0 0 0-7.872-3.767 13.958 13.958 0 0 0-8.604 1.677c-.886.506-1.92.71-2.938.579a4.664 4.664 0 0 1-2.684-1.299Z"/></g><defs><clipPath id="a"><path fill="#fff" d="M0 2h151v34H0z"/></clipPath></defs></svg>