<svg xmlns="http://www.w3.org/2000/svg" width="250" height="51" fill="none"><g fill="#000" clip-path="url(#a)"><path d="M29.546.879h-9.849v14.85a4.924 4.924 0 0 1-4.924 4.847H0v9.848h10.693a9.848 9.848 0 0 0 6.964-2.884l9.004-9.004a9.849 9.849 0 0 0 2.884-6.964V.88Zm-9.849 49.242h9.849v-14.85a4.924 4.924 0 0 1 4.923-4.847h14.774v-9.848H38.549a9.849 9.849 0 0 0-6.963 2.884l-9.004 9.004a9.849 9.849 0 0 0-2.885 6.964V50.12Z"/></g><path fill="#000" d="M75.08 36.5h-4.261l7.758-22.039h4.929l7.77 22.039h-4.262l-5.886-17.519h-.172L75.08 36.5Zm.14-8.641h11.622v3.207H75.22v-3.207Zm28.412 1.69V19.97h3.895V36.5h-3.777v-2.938h-.172a4.957 4.957 0 0 1-1.84 2.27c-.847.59-1.89.883-3.132.883-1.083 0-2.04-.24-2.873-.72-.825-.489-1.47-1.195-1.937-2.12-.466-.933-.7-2.06-.7-3.38V19.971h3.896v9.922c0 1.047.287 1.88.861 2.496.574.617 1.328.926 2.26.926.574 0 1.13-.14 1.668-.42.538-.28.979-.696 1.324-1.248.351-.56.527-1.26.527-2.099Zm6.992 6.951V19.971h3.777v2.755h.172c.302-.954.818-1.69 1.55-2.206.739-.524 1.582-.786 2.529-.786.215 0 .455.011.721.033.272.014.498.04.678.075v3.583c-.165-.057-.427-.107-.786-.15a7.221 7.221 0 0 0-1.022-.076c-.71 0-1.349.155-1.916.463a3.39 3.39 0 0 0-1.323 1.26c-.323.537-.484 1.158-.484 1.86V36.5h-3.896Zm17.743.323c-1.658 0-3.089-.345-4.294-1.033-1.198-.696-2.12-1.679-2.766-2.949-.645-1.277-.968-2.78-.968-4.509 0-1.7.323-3.192.968-4.476.653-1.292 1.564-2.296 2.734-3.013 1.169-.725 2.543-1.087 4.121-1.087 1.019 0 1.98.165 2.884.495a6.522 6.522 0 0 1 2.411 1.506c.703.682 1.255 1.55 1.657 2.605.401 1.047.602 2.295.602 3.744v1.195h-13.548v-2.626h9.814c-.007-.746-.168-1.41-.484-1.99a3.523 3.523 0 0 0-1.324-1.389c-.559-.337-1.212-.505-1.958-.505-.796 0-1.496.193-2.098.58a4 4 0 0 0-1.41 1.507 4.334 4.334 0 0 0-.506 2.034v2.292c0 .961.176 1.786.527 2.475a3.763 3.763 0 0 0 1.475 1.571c.631.359 1.37.538 2.216.538.567 0 1.08-.079 1.539-.236a3.427 3.427 0 0 0 1.195-.721c.337-.316.592-.707.764-1.174l3.637.41c-.23.96-.667 1.8-1.313 2.517-.638.71-1.456 1.263-2.453 1.658-.998.387-2.138.58-3.422.58Zm14.492.01c-1.047 0-1.991-.186-2.83-.559a4.62 4.62 0 0 1-1.98-1.679c-.481-.739-.721-1.65-.721-2.733 0-.933.172-1.704.517-2.314a3.996 3.996 0 0 1 1.409-1.463 7.11 7.11 0 0 1 2.013-.829 16.345 16.345 0 0 1 2.335-.42c.968-.1 1.754-.19 2.356-.268.603-.087 1.041-.216 1.313-.388.28-.18.42-.455.42-.828v-.065c0-.81-.24-1.438-.721-1.883-.481-.445-1.173-.667-2.077-.667-.954 0-1.711.208-2.271.624-.552.416-.925.907-1.119 1.474l-3.637-.517c.287-1.004.761-1.843 1.421-2.518.66-.681 1.467-1.19 2.421-1.528.954-.344 2.008-.516 3.163-.516.797 0 1.59.093 2.379.28.789.186 1.51.495 2.163.925a4.66 4.66 0 0 1 1.571 1.733c.402.731.602 1.646.602 2.744V36.5h-3.744v-2.27h-.13c-.236.459-.57.889-1 1.29-.424.395-.958.715-1.604.958-.638.237-1.388.356-2.249.356Zm1.012-2.862c.782 0 1.46-.154 2.034-.463.573-.315 1.015-.731 1.323-1.248.316-.516.474-1.08.474-1.69v-1.947c-.122.1-.33.194-.624.28-.287.086-.61.161-.969.226-.359.064-.714.122-1.065.172l-.915.129a6.8 6.8 0 0 0-1.56.387c-.459.18-.822.43-1.087.754-.266.315-.398.724-.398 1.226 0 .718.261 1.26.785 1.625.524.366 1.191.55 2.002.55Zm29.48-13.451c-.1-.94-.524-1.672-1.27-2.195-.739-.524-1.7-.786-2.884-.786-.832 0-1.546.126-2.141.377-.596.25-1.051.592-1.367 1.022-.316.43-.477.922-.484 1.474 0 .46.104.858.312 1.195.215.337.506.624.872.86.365.23.771.424 1.216.582.444.158.893.29 1.345.398l2.066.516a14.28 14.28 0 0 1 2.4.786c.774.33 1.467.746 2.076 1.248a5.544 5.544 0 0 1 1.464 1.819c.359.71.538 1.542.538 2.496 0 1.292-.33 2.429-.99 3.412-.66.975-1.614 1.74-2.862 2.292-1.242.545-2.745.818-4.509.818-1.715 0-3.204-.266-4.466-.797-1.256-.53-2.238-1.305-2.949-2.324-.703-1.019-1.083-2.26-1.14-3.723h3.927c.058.767.295 1.406.711 1.915.416.51.957.89 1.625 1.14.674.252 1.427.377 2.259.377.868 0 1.629-.129 2.282-.387.66-.265 1.176-.631 1.549-1.098a2.657 2.657 0 0 0 .571-1.657c-.008-.574-.176-1.047-.506-1.42-.33-.38-.793-.696-1.388-.947a13.407 13.407 0 0 0-2.066-.689l-2.508-.646c-1.815-.466-3.25-1.173-4.304-2.12-1.048-.954-1.571-2.22-1.571-3.798 0-1.299.351-2.436 1.054-3.412.711-.975 1.675-1.732 2.895-2.27 1.22-.545 2.601-.818 4.143-.818 1.564 0 2.934.273 4.111.818 1.183.538 2.112 1.288 2.787 2.249.674.954 1.022 2.052 1.044 3.293h-3.842Zm14.875-.549v3.013h-9.502v-3.013h9.502Zm-7.156-3.96h3.895v15.517c0 .524.079.926.237 1.206.165.272.38.459.645.56.266.1.56.15.883.15.244 0 .466-.018.667-.054a5.74 5.74 0 0 0 .473-.097l.657 3.046a8.73 8.73 0 0 1-.893.236c-.38.086-.847.137-1.399.151-.976.029-1.855-.118-2.637-.441a4.099 4.099 0 0 1-1.861-1.528c-.452-.689-.675-1.55-.667-2.583V16.011Zm20.039 13.537v-9.577h3.896V36.5h-3.777v-2.938h-.172c-.373.926-.987 1.683-1.84 2.27-.847.59-1.891.883-3.132.883-1.083 0-2.041-.24-2.873-.72-.825-.489-1.471-1.195-1.937-2.12-.466-.933-.7-2.06-.7-3.38V19.971h3.896v9.922c0 1.047.287 1.88.861 2.496.574.617 1.327.926 2.26.926.574 0 1.13-.14 1.668-.42.538-.28.979-.696 1.323-1.248.352-.56.527-1.26.527-2.099Zm13.126 7.243c-1.298 0-2.46-.334-3.486-1.001-1.026-.667-1.837-1.636-2.432-2.906-.596-1.27-.893-2.812-.893-4.627 0-1.837.301-3.386.904-4.649.609-1.27 1.431-2.227 2.464-2.873 1.033-.653 2.184-.98 3.454-.98.969 0 1.765.166 2.389.496.624.323 1.119.714 1.485 1.173.366.452.649.879.85 1.28h.162v-8.243h3.906V36.5h-3.831v-2.604h-.237a6.666 6.666 0 0 1-.871 1.28c-.381.445-.883.825-1.507 1.141-.624.316-1.41.474-2.357.474Zm1.087-3.197c.825 0 1.528-.222 2.109-.667.582-.452 1.023-1.08 1.324-1.883.301-.803.452-1.74.452-2.809 0-1.068-.151-1.997-.452-2.787-.294-.789-.732-1.402-1.313-1.84-.574-.437-1.28-.656-2.12-.656-.868 0-1.592.226-2.173.678-.582.452-1.019 1.076-1.313 1.872-.294.797-.441 1.708-.441 2.733 0 1.034.147 1.956.441 2.766.301.804.742 1.439 1.323 1.905.589.459 1.31.688 2.163.688ZM226.28 36.5V19.971h3.895V36.5h-3.895Zm1.958-18.875a2.271 2.271 0 0 1-1.592-.613c-.445-.416-.667-.915-.667-1.496 0-.588.222-1.087.667-1.496a2.25 2.25 0 0 1 1.592-.624c.625 0 1.155.208 1.593.624.445.41.667.908.667 1.496 0 .581-.222 1.08-.667 1.496-.438.409-.968.613-1.593.613Zm12.244 19.198c-1.614 0-3.013-.355-4.197-1.066-1.184-.71-2.102-1.703-2.755-2.98-.645-1.277-.968-2.77-.968-4.477 0-1.707.323-3.203.968-4.487.653-1.284 1.571-2.282 2.755-2.992s2.583-1.065 4.197-1.065c1.614 0 3.013.355 4.197 1.065 1.183.71 2.098 1.708 2.744 2.992.653 1.284.979 2.78.979 4.487 0 1.707-.326 3.2-.979 4.477-.646 1.277-1.561 2.27-2.744 2.98-1.184.71-2.583 1.066-4.197 1.066Zm.021-3.12c.876 0 1.607-.241 2.196-.722.588-.488 1.026-1.14 1.313-1.958.294-.818.441-1.73.441-2.734 0-1.011-.147-1.926-.441-2.744-.287-.825-.725-1.481-1.313-1.969-.589-.488-1.32-.732-2.196-.732-.896 0-1.642.244-2.238.732-.588.488-1.029 1.144-1.323 1.97-.287.817-.431 1.732-.431 2.743 0 1.005.144 1.916.431 2.734.294.817.735 1.47 1.323 1.958.596.48 1.342.721 2.238.721Z"/><defs><clipPath id="a"><path fill="#fff" d="M0 .879h49.242V50.12H0z"/></clipPath></defs></svg>