<svg xmlns="http://www.w3.org/2000/svg" width="60" height="29" fill="none"><path fill="#999" d="M28.772 15.454v4.512h1.466v-4.805c0-.608-.13-1.146-.391-1.613a2.808 2.808 0 0 0-1.075-1.09c-.445-.261-.961-.392-1.548-.392-.586 0-1.113.136-1.58.407a2.825 2.825 0 0 0-.88.756V8.336H23.3v11.63h1.466v-4.512c0-.39.087-.738.26-1.042.174-.304.413-.543.717-.717.304-.174.652-.26 1.043-.26.586 0 1.064.19 1.433.57.37.38.554.863.554 1.45Zm4.038 4.253a3.51 3.51 0 0 0 1.727.424c.651 0 1.222-.142 1.71-.424.5-.293.89-.695 1.173-1.205.282-.51.423-1.102.423-1.776v-4.495h-1.465v4.43c0 .64-.163 1.146-.49 1.515-.325.358-.776.538-1.351.538-.38 0-.711-.082-.994-.245a1.627 1.627 0 0 1-.651-.7c-.142-.315-.212-.684-.212-1.108v-4.43h-1.466v4.495c0 .674.141 1.265.423 1.776.283.51.674.912 1.173 1.205Z"/><path fill="#999" fill-rule="evenodd" d="M42.579 20.13c-.771 0-1.466-.174-2.085-.522a3.993 3.993 0 0 1-1.466-1.45c-.358-.608-.538-1.297-.538-2.068 0-.76.174-1.444.522-2.053a3.944 3.944 0 0 1 1.433-1.433 3.935 3.935 0 0 1 2.036-.538c.717 0 1.347.163 1.89.49.553.325.982.776 1.286 1.351.315.576.473 1.227.473 1.955a3.795 3.795 0 0 1-.082.782H39.99c.052.3.144.578.277.83.217.402.526.717.928.945.402.217.863.326 1.385.326.434 0 .83-.076 1.189-.228.37-.152.684-.38.945-.684l.944.96a3.597 3.597 0 0 1-1.368.995 4.297 4.297 0 0 1-1.71.342Zm-2.33-5.474a2.64 2.64 0 0 0-.257.766h4.709a2.514 2.514 0 0 0-.249-.847 1.971 1.971 0 0 0-.782-.847c-.336-.206-.744-.31-1.221-.31-.5 0-.94.109-1.32.326-.38.217-.673.521-.88.912Z" clip-rule="evenodd"/><path fill="#999" d="M47.075 19.478c.326.206.68.37 1.06.488.39.11.803.164 1.237.164.869 0 1.559-.212 2.069-.636.521-.423.782-.999.782-1.727 0-.477-.103-.863-.31-1.156a2.16 2.16 0 0 0-.765-.7 4.669 4.669 0 0 0-.994-.408 90.204 90.204 0 0 0-1.01-.31 2.65 2.65 0 0 1-.765-.357.7.7 0 0 1-.294-.603.68.68 0 0 1 .326-.603c.228-.152.554-.228.978-.228.401 0 .76.076 1.075.228.325.152.597.37.814.652l.945-.945a2.77 2.77 0 0 0-1.173-.945c-.467-.217-1.005-.326-1.613-.326-.575 0-1.07.093-1.482.277a2.2 2.2 0 0 0-.945.799c-.228.336-.342.738-.342 1.205 0 .467.098.841.294 1.124.206.282.466.505.781.668.315.163.646.298.994.407.358.098.695.2 1.01.31.315.097.57.227.765.39.207.152.31.37.31.652 0 .282-.125.505-.375.668-.25.152-.602.228-1.058.228-.457 0-.87-.082-1.239-.245a2.785 2.785 0 0 1-.977-.782l-.945.945c.24.294.522.549.847.766Zm3.776-9.845v.288h-.347v.879h-.33v-.88h-.348v-.288h1.025Zm1.353-.02v1.19h-.33v-.577l-.242.27h-.099l-.241-.27v.577h-.33v-1.19h.116l.505.508.504-.508h.117ZM9.243 11.53a2.776 2.776 0 0 0 3.477 1.824c1.464-.457 4.93-2.84 4.474-4.304-.456-1.464-4.663-1.454-6.127-.997a2.776 2.776 0 0 0-1.824 3.477Zm-.887 8.024a2.2 2.2 0 0 0 3.111 0c.86-.859 2.415-3.807 1.556-4.667-.859-.859-3.808.697-4.667 1.556a2.2 2.2 0 0 0 0 3.111Zm8.221.85a2.776 2.776 0 0 0 3.4-1.963c.397-1.481.237-5.685-1.244-6.082-1.481-.397-3.722 3.164-4.12 4.645a2.776 2.776 0 0 0 1.964 3.4Z"/></svg>