<svg xmlns="http://www.w3.org/2000/svg" width="96" height="28" fill="none"><g fill="#282828" clip-path="url(#a)"><path d="m53.266 6.785-2.304 7.952c-.226.843-.473 1.685-.72 2.959a30.568 30.568 0 0 0-.718-2.976L47.22 6.788h-2.913l-2.363 7.932a22.722 22.722 0 0 0-.719 2.976 32.782 32.782 0 0 0-.698-2.976l-2.24-7.932h-2.88l4.503 15.017h2.568l3.264-10.335 3.206 10.335h2.548l4.56-15.02h-2.79Zm7.169 4.562c-2.63 0-4.438 1.458-4.416 3.636h2.137c-.02-1.047.78-1.685 2.157-1.685 1.234 0 2.097.535 2.097 1.932v.226l-2.897.226c-2.281.184-3.76 1.248-3.76 3.226 0 1.89 1.293 3.168 3.472 3.168 1.602 0 2.814-.72 3.246-1.768l.185 1.5h2.198v-6.17c-.002-2.687-1.563-4.291-4.419-4.291Zm1.993 6.348c0 1.89-1.315 2.487-2.383 2.487-1.13 0-1.747-.493-1.747-1.377 0-.822.534-1.315 2.016-1.46l2.112-.184.002.534Zm12.167-4.665c-.616-1.068-1.89-1.706-3.39-1.706-2.897 0-4.85 2.199-4.85 5.179 0 2.958 1.912 5.095 4.768 5.095 1.48 0 2.753-.596 3.39-1.582v1.728c0 1.664-1.047 2.773-2.794 2.773-1.562 0-2.63-.76-2.774-2.095h-2.529c.329 2.65 2.363 4.377 5.157 4.377 3.287 0 5.384-2.158 5.384-5.507v-9.639h-2.22l-.142 1.377Zm-3.04 6.39c-1.562 0-2.65-1.274-2.65-2.976 0-1.685 1.067-2.918 2.65-2.918 1.728 0 2.88 1.253 2.88 2.918-.006 1.682-1.157 2.976-2.882 2.976h.002Zm11.728.538c-1.52 0-2.466-.884-2.528-2.507h7.233v-.76c0-3.226-1.788-5.342-4.746-5.342-2.918 0-4.912 2.112-4.912 5.382 0 3.227 1.973 5.343 4.912 5.343 2.445 0 4.355-1.459 4.787-3.617h-2.322c-.247.882-1.213 1.5-2.424 1.5Zm-.124-6.535c1.356 0 2.322.843 2.342 2.425h-4.704c.02-1.543.985-2.428 2.362-2.428v.003Zm8.94-.578-.144-1.17H89.65v10.129h2.512v-4.931c0-1.973 1.047-3.082 2.856-3.082h.984v-2.178c-1.536-.35-3.288 0-3.904 1.232Zm-71.167.912-4.089 4.089 4.089 4.083a5.779 5.779 0 1 0 0-8.172Zm-9.622-1.444 4.086 4.086 4.086-4.086a5.774 5.774 0 0 0 0-8.172L15.396.056 11.311 4.14a5.776 5.776 0 0 0 0 8.172Zm-1.443 1.444 4.085 4.088-4.085 4.086a5.78 5.78 0 1 1 0-8.174Zm10.316 14.01-4.786-8.931-4.787 8.93h9.573Z"/></g><defs><clipPath id="a"><path fill="#fff" d="M0 .056h96v27.71H0z"/></clipPath></defs></svg>