<svg xmlns="http://www.w3.org/2000/svg" width="19" height="19" fill="none"><path fill="#fff" d="M2.669 1.972c-.106-.536-.16-.804-.006-.928.154-.125.405-.017.907.198l3.924 1.682A1.966 1.966 0 0 1 8.65 4.349l1.07 5.408-5.067-2.171A1.966 1.966 0 0 1 3.498 6.16l-.83-4.188Z"/><path fill="#fff" d="m9.72 9.757 5.066 2.172a1.966 1.966 0 0 1 1.155 1.425l.83 4.189c.105.535.158.803.005.928-.154.124-.405.016-.907-.199l-3.925-1.682a1.967 1.967 0 0 1-1.154-1.425L9.72 9.757l-2.172 5.067a1.967 1.967 0 0 1-1.426 1.155l-4.188.829c-.536.106-.803.159-.928.005-.124-.153-.017-.404.198-.906l1.682-3.925a1.966 1.966 0 0 1 1.426-1.154l5.408-1.07 2.17-5.068a1.966 1.966 0 0 1 1.426-1.154l4.188-.83c.536-.105.804-.159.928-.005s.017.405-.198.907l-1.682 3.924a1.966 1.966 0 0 1-1.426 1.155L9.72 9.757Z"/></svg>