<svg xmlns="http://www.w3.org/2000/svg" width="60" height="22" fill="none"><path fill="#999" d="M3.54 10.702a6.202 6.202 0 0 1-1.47-2.454l7.056-6.18 7.171 6.084a6.162 6.162 0 0 1-1.402 2.452c-2.89-2.973-8.524-2.939-11.354.098Zm-1.39 2.403a6.184 6.184 0 0 1 1.391-2.403c2.895 2.973 8.53 2.93 11.354-.098a6.188 6.188 0 0 1 1.482 2.5l-7.114 6.133-7.113-6.132Zm18.518-2.419c0-.75.167-1.419.502-2.008a3.624 3.624 0 0 1 1.386-1.386 3.93 3.93 0 0 1 1.975-.502c.852 0 1.597.218 2.238.655.64.436 1.087 1.04 1.342 1.811h-1.757a1.811 1.811 0 0 0-.742-.818 2.132 2.132 0 0 0-1.092-.273c-.444 0-.84.105-1.19.316a2.134 2.134 0 0 0-.807.873c-.19.379-.284.823-.284 1.332 0 .502.095.946.284 1.331.197.379.466.673.808.884.349.204.745.306 1.19.306.414 0 .778-.09 1.09-.273.32-.189.568-.465.743-.83h1.757c-.255.78-.702 1.387-1.343 1.823-.633.43-1.378.644-2.237.644a3.998 3.998 0 0 1-1.975-.49 3.727 3.727 0 0 1-1.386-1.387c-.335-.59-.502-1.259-.502-2.008Zm9.73-1.288c.197-.32.451-.571.764-.753a2.17 2.17 0 0 1 1.092-.273v1.605h-.404c-.48 0-.844.112-1.092.338-.24.226-.36.618-.36 1.179v3.012H28.87V8.46h1.528v.938Zm5.024 5.206a3.222 3.222 0 0 1-1.572-.382 2.866 2.866 0 0 1-1.102-1.102c-.262-.473-.393-1.019-.393-1.637 0-.619.135-1.165.404-1.637a2.844 2.844 0 0 1 1.124-1.092c.473-.262 1-.393 1.582-.393.582 0 1.11.131 1.583.393a2.77 2.77 0 0 1 1.113 1.092c.276.473.415 1.018.415 1.637 0 .618-.142 1.164-.426 1.637a2.9 2.9 0 0 1-1.135 1.102 3.308 3.308 0 0 1-1.593.382Zm0-1.331a1.497 1.497 0 0 0 1.364-.808c.145-.27.218-.597.218-.982 0-.575-.153-1.015-.458-1.32a1.463 1.463 0 0 0-1.102-.47 1.46 1.46 0 0 0-1.103.47c-.29.305-.436.745-.436 1.32 0 .574.142 1.018.425 1.331.291.306.655.459 1.092.459Zm7.079-4.901c.72 0 1.303.23 1.747.688.443.45.665 1.084.665 1.899v3.547h-1.528v-3.34c0-.48-.12-.848-.36-1.102-.24-.262-.567-.393-.982-.393-.422 0-.757.131-1.004.393-.24.255-.36.622-.36 1.102v3.34H39.15V8.46h1.528v.753c.203-.262.462-.466.775-.612a2.4 2.4 0 0 1 1.047-.229Zm2.927 3.088c0-.61.12-1.152.36-1.625a2.73 2.73 0 0 1 .993-1.092 2.672 2.672 0 0 1 1.408-.382c.45 0 .844.091 1.178.273.342.182.615.411.819.688V8.46h1.539v6.046h-1.539v-.884c-.197.284-.47.52-.819.71a2.495 2.495 0 0 1-1.19.272c-.508 0-.974-.131-1.396-.393a2.812 2.812 0 0 1-.993-1.102c-.24-.48-.36-1.03-.36-1.648Zm4.758.023c0-.371-.073-.688-.218-.95a1.494 1.494 0 0 0-.59-.611 1.545 1.545 0 0 0-.796-.218 1.55 1.55 0 0 0-.786.207 1.59 1.59 0 0 0-.59.611c-.145.262-.218.575-.218.939s.073.684.218.96c.153.27.35.477.59.622.247.146.51.219.786.219.283 0 .549-.07.796-.208.248-.145.444-.349.59-.61.145-.27.218-.59.218-.961Z"/></svg>