<svg xmlns="http://www.w3.org/2000/svg" width="60" height="25" fill="none"><path fill="#999" d="M19.574 9.383v5.79L14.25 18.07v-5.79l5.324-2.896Z"/><path fill="#999" d="M14.25 12.278v5.79l-5.333 2.896v-5.79l5.334-2.896Zm-5.333 8.686-5.324-2.895v-5.79l5.324 2.895v5.79ZM3.593 6.488l5.324-2.895 5.334 2.895-5.334 2.895-5.324-2.895Z"/><path fill="#999" d="m8.917 15.174-5.324-2.896v-5.79l5.324 2.895v5.79Zm18.139-4.112v-.533l3.268-4.88H27.02V5h4.18v.532l-3.268 4.88h3.305v.651h-4.181Zm9.392-6.064h.734v4.015c0 .415-.098.785-.293 1.11-.194.324-.467.58-.82.768-.354.185-.768.278-1.244.278s-.89-.093-1.243-.278a2.073 2.073 0 0 1-.824-.767 2.133 2.133 0 0 1-.29-1.11V4.997h.734v3.956c0 .296.066.56.196.79.13.23.316.41.557.543.242.13.533.195.87.195.338 0 .628-.065.87-.195.243-.133.429-.313.557-.542a1.58 1.58 0 0 0 .196-.79V4.997Zm2.2 0h.877l2.06 5.034h.072l2.06-5.034h.877v6.064h-.687V6.455h-.059l-1.895 4.607h-.663l-1.895-4.607h-.06v4.607h-.687V4.998Zm7.667 6.064h-.77l2.227-6.064h.758l2.227 6.064h-.77l-1.812-5.104h-.048l-1.812 5.104Zm.285-2.368h3.103v.65h-3.104v-.65Zm5.101 2.368V4.998h2.05c.473 0 .862.081 1.166.243.304.16.529.38.675.66.146.28.219.6.219.957s-.073.674-.22.95a1.54 1.54 0 0 1-.671.652c-.302.156-.688.234-1.158.234h-1.658V8.03h1.634c.324 0 .585-.047.782-.142a.899.899 0 0 0 .432-.403c.091-.175.137-.384.137-.627s-.046-.455-.137-.637a.929.929 0 0 0-.435-.42c-.2-.101-.463-.151-.79-.151h-1.291v5.412H51.7Zm2.855-2.724 1.492 2.724h-.853l-1.468-2.724h.829Zm-22.419 6.893h-.735a1.525 1.525 0 0 0-.619-.959 1.66 1.66 0 0 0-.506-.249 2.02 2.02 0 0 0-.58-.083c-.367 0-.7.093-.998.279a1.936 1.936 0 0 0-.708.82c-.174.361-.26.804-.26 1.33 0 .524.086.968.26 1.329.176.361.412.634.708.82.298.186.63.278.998.278.201 0 .395-.027.58-.082.186-.056.354-.138.506-.246a1.56 1.56 0 0 0 .62-.963h.734c-.056.31-.156.588-.302.832a2.274 2.274 0 0 1-1.277 1.013 2.727 2.727 0 0 1-.861.133 2.54 2.54 0 0 1-1.38-.379 2.6 2.6 0 0 1-.95-1.078c-.232-.465-.347-1.018-.347-1.658 0-.64.116-1.192.346-1.658.231-.466.548-.825.95-1.078a2.542 2.542 0 0 1 1.38-.379c.307 0 .594.045.862.134.27.088.515.219.732.39.217.17.399.378.545.622.146.243.246.52.302.832Zm6.303 1.137c0 .64-.116 1.193-.347 1.659a2.6 2.6 0 0 1-.95 1.077 2.541 2.541 0 0 1-1.38.38c-.517 0-.977-.127-1.38-.38a2.6 2.6 0 0 1-.95-1.078c-.231-.465-.347-1.018-.347-1.658 0-.64.116-1.192.347-1.658a2.6 2.6 0 0 1 .95-1.078 2.542 2.542 0 0 1 1.38-.379c.517 0 .977.127 1.38.38a2.6 2.6 0 0 1 .95 1.077c.231.466.347 1.019.347 1.658Zm-.71 0c0-.525-.089-.968-.264-1.33a1.91 1.91 0 0 0-.708-.82 1.835 1.835 0 0 0-.995-.278c-.367 0-.7.093-.998.279a1.936 1.936 0 0 0-.708.82c-.173.361-.26.804-.26 1.33 0 .524.087.968.26 1.329.176.361.412.634.708.82.298.186.63.278.998.278.367 0 .699-.092.995-.278.298-.186.534-.459.708-.82.175-.361.263-.805.263-1.33Zm6.753-3.032V19.4h-.71l-3.305-4.76h-.06v4.76h-.733v-6.064h.71l3.316 4.773h.06v-4.773h.722Zm4.786 1.516a.93.93 0 0 0-.432-.698c-.253-.166-.563-.25-.93-.25-.269 0-.504.044-.705.131-.2.087-.355.206-.468.358a.858.858 0 0 0-.166.519.74.74 0 0 0 .116.417c.079.115.18.21.302.287.122.075.25.138.385.187.134.047.257.086.37.115l.616.166c.158.042.333.099.527.172.195.073.382.173.56.299.18.124.327.284.444.48.116.195.174.435.174.72 0 .327-.085.623-.257.887-.17.265-.419.475-.746.631-.326.156-.722.234-1.188.234-.434 0-.81-.07-1.128-.21a1.798 1.798 0 0 1-.746-.587 1.673 1.673 0 0 1-.305-.873h.758a.95.95 0 0 0 .23.569c.137.148.309.258.516.331.21.071.434.107.675.107.28 0 .532-.046.755-.137.223-.092.4-.22.53-.384a.912.912 0 0 0 .196-.58.712.712 0 0 0-.17-.492 1.24 1.24 0 0 0-.443-.308 4.675 4.675 0 0 0-.595-.208l-.747-.213c-.473-.136-.848-.33-1.125-.583-.276-.253-.414-.583-.414-.992 0-.34.092-.635.275-.888a1.83 1.83 0 0 1 .746-.592 2.52 2.52 0 0 1 1.051-.214c.391 0 .739.07 1.043.21.304.139.544.328.722.57.18.24.274.513.284.82h-.71Z"/></svg>