<svg xmlns="http://www.w3.org/2000/svg" width="83" height="32" fill="none"><g fill="#131313" clip-path="url(#a)"><path d="M19.701 0c-3.24 0-6.35 1.29-8.641 3.588l-7.48 7.498A12.266 12.266 0 0 0 0 19.75C0 26.515 5.472 32 12.222 32c3.24 0 6.35-1.29 8.641-3.588l5.174-5.187L41.113 8.114A5.83 5.83 0 0 1 45.24 6.4a5.841 5.841 0 0 1 5.55 4.036l4.758-4.769C53.378 2.26 49.572 0 45.24 0c-3.241 0-6.35 1.29-8.642 3.588l-20.25 20.298a5.83 5.83 0 0 1-4.126 1.714c-3.224 0-5.837-2.62-5.837-5.851 0-1.552.615-3.04 1.71-4.137l7.48-7.498a5.83 5.83 0 0 1 9.677 2.322l4.758-4.769C27.84 2.26 24.034 0 19.701 0Z"/><path d="M41.887 23.886A5.83 5.83 0 0 1 37.76 25.6a5.84 5.84 0 0 1-5.55-4.036l-4.758 4.77a12.205 12.205 0 0 0 18.95 2.078l20.25-20.298A5.83 5.83 0 0 1 70.777 6.4c3.224 0 5.837 2.62 5.837 5.851 0 1.552-.615 3.04-1.71 4.137l-7.48 7.498a5.83 5.83 0 0 1-9.677-2.322l-4.758 4.77C55.16 29.74 58.966 32 63.298 32c3.242 0 6.35-1.29 8.642-3.588l7.48-7.498A12.266 12.266 0 0 0 83 12.25C83 5.485 77.528 0 70.778 0c-3.24 0-6.35 1.29-8.642 3.588L41.888 23.886Z"/></g><defs><clipPath id="a"><path fill="#fff" d="M0 0h83v32H0z"/></clipPath></defs></svg>