<svg xmlns="http://www.w3.org/2000/svg" width="144" height="49" fill="none"><g fill="#282828" clip-path="url(#a)"><path d="m36.218 33.158-5.956-17.936a6.172 6.172 0 0 0-1.684-2.605 6.122 6.122 0 0 0-8.494.193l-1.926 1.943-1.93-1.943a6.121 6.121 0 0 0-8.492-.192 6.173 6.173 0 0 0-1.685 2.604L.096 33.158a1.867 1.867 0 0 0 .533 2.01 1.853 1.853 0 0 0 2.056.258 1.854 1.854 0 0 0 .927-1.09l5.954-17.937a2.451 2.451 0 0 1 1.754-1.609 2.43 2.43 0 0 1 2.285.65l2.306 2.32a11.322 11.322 0 0 1-5.428 4.885h-.007a1.856 1.856 0 0 0-1.12 1.71 1.866 1.866 0 0 0 1.12 1.708 11.35 11.35 0 0 1 5.976 6 1.858 1.858 0 0 0 1.703 1.127 1.847 1.847 0 0 0 1.703-1.128 11.348 11.348 0 0 1 5.975-5.999 1.856 1.856 0 0 0 1.122-1.71 1.867 1.867 0 0 0-1.122-1.709h-.004a11.323 11.323 0 0 1-5.425-4.885l2.306-2.315a2.438 2.438 0 0 1 2.285-.652 2.438 2.438 0 0 1 1.755 1.609l5.954 17.936c.16.464.495.845.932 1.062a1.846 1.846 0 0 0 2.473-.828c.22-.437.26-.944.111-1.41l-.002-.003ZM19.65 25.857a14.972 14.972 0 0 0-1.492 1.747 15.2 15.2 0 0 0-3.233-3.247 15.188 15.188 0 0 0 3.233-3.24 15.182 15.182 0 0 0 3.233 3.243c-.617.454-1.2.954-1.741 1.497Zm26.66 6.357a.618.618 0 0 1-.186-.456V14.304a.682.682 0 0 1 .173-.483.609.609 0 0 1 .467-.187h2.164c.338 0 .605.17.801.51l5.154 9.599 5.153-9.6c.196-.34.463-.51.801-.509h2.137a.637.637 0 0 1 .667.67v17.454a.616.616 0 0 1-.186.47.676.676 0 0 1-.48.174h-2.298a.635.635 0 0 1-.593-.397.644.644 0 0 1-.048-.247V20.231l-3.712 7.08c-.195.394-.49.591-.881.59H54.32c-.373 0-.676-.196-.908-.59l-3.712-7.08v11.53a.643.643 0 0 1-.173.455.603.603 0 0 1-.468.188h-2.296a.612.612 0 0 1-.453-.19Zm21.235-1.259c-1.167-1.144-1.785-2.771-1.856-4.88l-.027-.67c0-2.235.583-3.996 1.749-5.283 1.166-1.286 2.782-1.93 4.847-1.93 2.119 0 3.752.643 4.9 1.93 1.148 1.288 1.723 3.004 1.723 5.148v.563a.625.625 0 0 1-.187.456.65.65 0 0 1-.48.188h-8.866v.214c.035 1.002.306 1.828.813 2.48.508.653 1.206.979 2.096.979 1.016 0 1.844-.411 2.484-1.233.16-.197.284-.317.374-.362.09-.045.24-.069.454-.069h2.35a.658.658 0 0 1 .414.137.447.447 0 0 1 .173.375c0 .43-.253.934-.76 1.515-.508.581-1.233 1.086-2.177 1.515-.944.43-2.04.644-3.285.644-1.993-.001-3.573-.574-4.74-1.717Zm7.65-6.757v-.054c0-1.054-.262-1.899-.787-2.534-.526-.635-1.242-.953-2.15-.953-.908 0-1.62.318-2.136.953-.516.636-.774 1.48-.774 2.534v.054h5.848Zm5.491 8.016a.618.618 0 0 1-.188-.455V19.13a.656.656 0 0 1 .395-.624.614.614 0 0 1 .246-.047h2.19a.636.636 0 0 1 .625.41.645.645 0 0 1 .043.26v1.102c.89-1.18 2.172-1.77 3.846-1.77h1.121a.596.596 0 0 1 .605.39c.03.08.042.167.036.253v1.957a.647.647 0 0 1-.174.456.606.606 0 0 1-.467.188h-2.11c-.836 0-1.495.241-1.976.724-.48.483-.72 1.144-.72 1.984v7.346a.642.642 0 0 1-.642.644h-2.373a.612.612 0 0 1-.457-.19Zm10.925-1.179c-1.166-1.09-1.785-2.6-1.856-4.532l-.026-1.072.026-1.072c.071-1.93.69-3.44 1.856-4.531 1.166-1.09 2.728-1.636 4.687-1.634 1.406 0 2.594.25 3.565.749.971.499 1.692 1.112 2.163 1.838.472.724.725 1.417.761 2.078a.517.517 0 0 1-.174.455.661.661 0 0 1-.467.188h-2.373c-.196 0-.338-.04-.427-.12-.09-.082-.179-.229-.268-.443-.266-.68-.617-1.172-1.054-1.474-.437-.303-.993-.455-1.669-.457-.908 0-1.616.286-2.123.858-.507.572-.779 1.448-.814 2.628l-.027.992.027.885c.107 2.325 1.086 3.487 2.938 3.486.693 0 1.254-.147 1.682-.442.428-.295.775-.791 1.041-1.488a1.08 1.08 0 0 1 .254-.43c.098-.09.245-.136.44-.136h2.374a.662.662 0 0 1 .467.188.518.518 0 0 1 .174.456c-.036.625-.284 1.3-.746 2.024s-1.175 1.345-2.137 1.863c-.961.519-2.163.778-3.605.778-1.96 0-3.524-.545-4.689-1.635Zm14.022.027c-.944-1.072-1.416-2.547-1.416-4.426v-7.532a.605.605 0 0 1 .187-.47.644.644 0 0 1 .454-.174h2.402a.638.638 0 0 1 .641.643v7.374c0 2.198.952 3.297 2.858 3.298.925 0 1.66-.295 2.203-.885.543-.59.814-1.395.813-2.413v-7.373a.617.617 0 0 1 .641-.644h2.377a.596.596 0 0 1 .641.643V31.76a.641.641 0 0 1-.174.455.6.6 0 0 1-.467.188h-2.217a.635.635 0 0 1-.592-.397.632.632 0 0 1-.048-.246v-1.1c-.98 1.34-2.457 2.011-4.433 2.011-1.636 0-2.926-.536-3.87-1.608Zm14.309 1.152a.612.612 0 0 1-.188-.455V19.13a.664.664 0 0 1 .188-.483.607.607 0 0 1 .453-.188h2.19a.636.636 0 0 1 .625.41.646.646 0 0 1 .043.26v1.102c.889-1.18 2.171-1.77 3.845-1.77h1.117a.595.595 0 0 1 .605.39c.03.08.042.167.035.253v1.957a.647.647 0 0 1-.173.456.606.606 0 0 1-.467.188h-2.11c-.837 0-1.496.241-1.977.724-.48.483-.721 1.144-.721 1.984v7.346a.632.632 0 0 1-.187.456.63.63 0 0 1-.453.188h-2.377a.609.609 0 0 1-.448-.19Zm13.12 5.121a.498.498 0 0 1-.174-.375c.006-.149.042-.295.107-.429l2.11-4.96-5.129-12.146a1.008 1.008 0 0 1-.107-.376.711.711 0 0 1 .187-.415.53.53 0 0 1 .4-.174h2.217c.321 0 .551.17.695.51l3.552 8.74 3.604-8.74c.178-.34.427-.51.746-.51h2.164a.537.537 0 0 1 .4.16.516.516 0 0 1 .16.376 1.082 1.082 0 0 1-.107.43l-7.554 17.56c-.142.34-.391.51-.746.51h-2.137a.554.554 0 0 1-.388-.16Z"/></g><defs><clipPath id="a"><path fill="#fff" d="M0 11h144v26.496H0z"/></clipPath></defs></svg>