<svg xmlns="http://www.w3.org/2000/svg" width="60" height="26" fill="none"><path fill="#999" d="M16.676 16.254a2.81 2.81 0 0 1-.806 2.219 2.81 2.81 0 0 1-2.212.826 2.81 2.81 0 0 1 .806-2.22 2.81 2.81 0 0 1 2.212-.825Zm-1.437-1.097a4.094 4.094 0 0 1-3.186 1.298 4.094 4.094 0 0 1-3.054-1.582 4.094 4.094 0 0 1 3.186-1.298 4.094 4.094 0 0 1 3.054 1.582ZM8.535 12.43a7.027 7.027 0 0 1 2.91-5.137 7.027 7.027 0 0 1 5.796-1.119 7.027 7.027 0 0 1-2.909 5.138 7.027 7.027 0 0 1-5.797 1.118Zm32.131-2.433v1.208h.724v6.315h1.288v-6.315h1.692V9.997h-1.691V8.761c0-.354.032-.639.096-.853.065-.215.15-.365.258-.451a.641.641 0 0 1 .419-.145c.128 0 .263.027.402.08.15.043.28.156.387.339l.708-1.063a1.264 1.264 0 0 0-.322-.306 1.733 1.733 0 0 0-.467-.242 1.883 1.883 0 0 0-.628-.097c-.45 0-.837.097-1.16.29-.31.183-.552.462-.724.838-.172.376-.258.859-.258 1.45v1.396h-.724ZM20.433 7.535v9.985h5.797v-1.288h-4.428V7.535h-1.37Z"/><path fill="#999" fill-rule="evenodd" d="M29.665 17.683c.794 0 1.481-.155 2.061-.467.59-.322 1.08-.794 1.466-1.417l-1.047-.66c-.269.45-.596.789-.983 1.014-.386.215-.832.323-1.336.323-.505 0-.934-.108-1.289-.323a2.025 2.025 0 0 1-.805-.934 3.284 3.284 0 0 1-.258-1.079h5.83v-.145a1.96 1.96 0 0 0 .017-.241c0-.784-.14-1.46-.42-2.03a2.967 2.967 0 0 0-1.207-1.304c-.515-.311-1.138-.467-1.868-.467-.73 0-1.375.161-1.933.483a3.401 3.401 0 0 0-1.288 1.353c-.3.58-.451 1.256-.451 2.03 0 .762.145 1.433.435 2.012.3.58.714 1.037 1.24 1.37.537.321 1.148.482 1.836.482Zm-1.917-5.379a2.9 2.9 0 0 0-.227.741h4.391a2.178 2.178 0 0 0-.267-.934 1.892 1.892 0 0 0-.724-.757 2.132 2.132 0 0 0-1.095-.274c-.494 0-.918.108-1.273.322a2.067 2.067 0 0 0-.805.902Zm10.816 1.156a3.23 3.23 0 0 0-.773-.35c-.354-.13-.8-.194-1.337-.194-.912 0-1.626.22-2.142.66-.504.43-.756 1.005-.756 1.724 0 .505.118.934.354 1.288.236.355.548.628.934.822.397.182.821.273 1.272.273a3.52 3.52 0 0 0 1.224-.225c.419-.15.768-.381 1.047-.693a1.61 1.61 0 0 0 .177-.227v.984h1.288v-5.314c0-.483-.123-.891-.37-1.224-.236-.333-.574-.585-1.014-.757-.43-.183-.935-.274-1.514-.274-.687 0-1.278.102-1.772.306-.483.204-.864.408-1.143.612l.628.95c.118-.086.28-.188.483-.306a3.417 3.417 0 0 1 1.74-.435c.225 0 .44.022.643.065.204.043.381.113.532.21a.96.96 0 0 1 .37.402c.086.16.13.37.13.628v1.076Zm-3.51 1.083a1.219 1.219 0 0 0-.194.693c0 .279.064.52.193.724.14.204.328.36.564.467.247.097.526.145.837.145.398 0 .752-.08 1.063-.241a1.863 1.863 0 0 0 1.047-1.707v-.28a3.629 3.629 0 0 0-.628-.236 4.446 4.446 0 0 0-1.272-.177c-.419 0-.763.054-1.031.161-.258.107-.45.258-.58.451Zm14.906 2.673c-.579.312-1.266.467-2.06.467-.688 0-1.3-.16-1.837-.483a3.478 3.478 0 0 1-1.24-1.369c-.29-.58-.434-1.25-.434-2.013 0-.773.15-1.45.45-2.029.312-.58.741-1.03 1.289-1.353.558-.322 1.202-.483 1.933-.483.73 0 1.352.156 1.868.467.526.3.928.736 1.207 1.305.28.569.42 1.245.42 2.029 0 .075-.006.155-.017.241v.145h-5.83c.033.41.12.77.258 1.08.183.407.45.719.805.933.354.215.784.323 1.289.323.504 0 .95-.108 1.336-.323.387-.225.714-.563.983-1.014l1.046.66c-.386.623-.875 1.095-1.465 1.417Zm-4.204-4.17c.048-.277.124-.524.227-.742.193-.397.462-.697.805-.902.355-.214.779-.322 1.273-.322.418 0 .783.092 1.095.274.31.183.553.435.724.757.153.27.242.581.267.934h-4.39Z" clip-rule="evenodd"/></svg>