<svg xmlns="http://www.w3.org/2000/svg" width="96" height="35" fill="none"><path fill="#282828" d="M2.843 17.51A11.984 11.984 0 0 1 0 12.77L13.642.82l13.864 11.762a11.912 11.912 0 0 1-2.712 4.738c-5.586-5.746-16.48-5.681-21.95.19Zm-2.69 4.647a11.96 11.96 0 0 1 2.69-4.646c5.596 5.748 16.49 5.667 21.951-.19a11.963 11.963 0 0 1 2.867 4.836L13.907 34.012.154 22.157Zm35.805-4.677c0-1.448.323-2.742.97-3.882a7.005 7.005 0 0 1 2.68-2.68c1.14-.646 2.412-.97 3.82-.97 1.645 0 3.087.422 4.325 1.266 1.237.844 2.102 2.012 2.595 3.503H46.95c-.338-.704-.816-1.231-1.435-1.583-.605-.351-1.308-.527-2.11-.527-.858 0-1.625.204-2.3.612-.661.394-1.181.956-1.561 1.688-.366.731-.549 1.59-.549 2.574 0 .97.183 1.828.549 2.574.38.732.9 1.301 1.561 1.71.675.393 1.442.59 2.3.59.802 0 1.505-.176 2.11-.528.619-.365 1.097-.9 1.435-1.603h3.397c-.493 1.505-1.358 2.68-2.596 3.523-1.223.83-2.665 1.245-4.325 1.245-1.407 0-2.68-.316-3.819-.95a7.204 7.204 0 0 1-2.68-2.679c-.647-1.14-.97-2.433-.97-3.882Zm18.812-2.489a4.18 4.18 0 0 1 1.477-1.456c.619-.351 1.322-.527 2.11-.527v3.101h-.78c-.93 0-1.633.218-2.11.654-.465.436-.697 1.196-.697 2.28v5.823h-2.954v-11.69h2.954v1.815Zm9.712 10.065c-1.125 0-2.138-.247-3.038-.739a5.54 5.54 0 0 1-2.132-2.13c-.506-.915-.76-1.97-.76-3.166 0-1.195.261-2.25.782-3.165a5.496 5.496 0 0 1 2.173-2.11c.914-.506 1.934-.76 3.06-.76 1.125 0 2.145.254 3.059.76a5.355 5.355 0 0 1 2.152 2.11c.534.914.802 1.97.802 3.165 0 1.196-.275 2.25-.823 3.165a5.607 5.607 0 0 1-2.195 2.131c-.914.492-1.94.739-3.08.739Zm0-2.575a3.08 3.08 0 0 0 1.498-.38 2.887 2.887 0 0 0 1.14-1.18c.28-.521.421-1.154.421-1.9 0-1.111-.295-1.962-.886-2.553-.576-.605-1.287-.907-2.13-.907-.845 0-1.555.302-2.132.907-.563.59-.844 1.442-.844 2.553s.274 1.97.823 2.574c.563.591 1.266.887 2.11.887Zm13.688-9.473c1.392 0 2.517.443 3.375 1.329.858.872 1.287 2.096 1.287 3.671v6.858h-2.954v-6.457c0-.928-.232-1.639-.696-2.13-.464-.507-1.097-.76-1.899-.76-.816 0-1.463.253-1.941.76-.464.491-.696 1.202-.696 2.13v6.457h-2.954v-11.69h2.954v1.456c.394-.506.893-.9 1.498-1.181a4.641 4.641 0 0 1 2.025-.443Zm5.657 5.971c0-1.182.232-2.23.696-3.144.478-.914 1.118-1.618 1.92-2.11.816-.492 1.723-.738 2.722-.738.872 0 1.632.175 2.279.527.66.352 1.188.795 1.582 1.33v-1.667h2.975v11.689h-2.975v-1.71c-.38.55-.907 1.006-1.582 1.372-.661.352-1.428.528-2.3.528a5.021 5.021 0 0 1-2.7-.76c-.803-.506-1.443-1.217-1.92-2.131-.465-.928-.697-1.99-.697-3.186Zm9.2.042c0-.717-.141-1.33-.423-1.836a2.888 2.888 0 0 0-1.14-1.181 2.986 2.986 0 0 0-1.54-.422c-.548 0-1.054.133-1.519.4-.464.268-.844.662-1.139 1.182-.281.507-.422 1.112-.422 1.815 0 .703.14 1.322.422 1.857.295.52.675.921 1.14 1.202a2.95 2.95 0 0 0 1.519.422c.548 0 1.062-.133 1.54-.4a3.07 3.07 0 0 0 1.14-1.182c.28-.52.421-1.14.421-1.857Z"/></svg>