<svg xmlns="http://www.w3.org/2000/svg" width="106" height="49" fill="none"><path fill="#000" d="M50.831 26.828v7.833h2.59v-8.342c0-1.055-.23-1.989-.69-2.8a4.918 4.918 0 0 0-1.9-1.894c-.786-.452-1.698-.678-2.734-.678s-1.966.235-2.791.706a4.958 4.958 0 0 0-1.554 1.312V14.47h-2.59v20.19h2.59v-7.833c0-.678.153-1.282.46-1.81a3.314 3.314 0 0 1 1.267-1.244c.537-.301 1.15-.452 1.842-.452 1.035 0 1.88.33 2.532.99.652.66.978 1.498.978 2.516Zm7.134 7.383c.901.49 1.918.736 3.05.736 1.151 0 2.159-.246 3.022-.736a5.478 5.478 0 0 0 2.072-2.092c.499-.886.748-1.914.748-3.082v-7.805h-2.59v7.691c0 1.113-.288 1.99-.863 2.63-.576.622-1.372.933-2.389.933-.671 0-1.256-.141-1.755-.424a2.845 2.845 0 0 1-1.151-1.216c-.25-.547-.374-1.188-.374-1.923v-7.691h-2.59v7.805c0 1.168.249 2.196.748 3.082a5.473 5.473 0 0 0 2.072 2.092Z"/><path fill="#000" fill-rule="evenodd" d="M75.221 34.944c-1.362 0-2.59-.301-3.683-.905a6.996 6.996 0 0 1-2.59-2.516c-.633-1.056-.95-2.253-.95-3.591 0-1.32.307-2.508.921-3.563a6.909 6.909 0 0 1 2.532-2.489c1.075-.622 2.274-.933 3.598-.933 1.266 0 2.378.283 3.338.848a5.867 5.867 0 0 1 2.273 2.347c.556 1 .835 2.13.835 3.394 0 .188-.01.396-.03.622a6.817 6.817 0 0 1-.114.735H70.646c.091.523.254 1.004.489 1.442.383.698.93 1.244 1.64 1.64.71.377 1.525.566 2.446.566.768 0 1.468-.132 2.101-.396a4.348 4.348 0 0 0 1.669-1.188l1.669 1.669a6.342 6.342 0 0 1-2.417 1.725 7.707 7.707 0 0 1-3.022.593Zm-4.115-9.5c-.215.4-.367.843-.455 1.328h8.32a4.31 4.31 0 0 0-.44-1.47 3.445 3.445 0 0 0-1.382-1.47c-.594-.359-1.314-.538-2.158-.538-.883 0-1.66.189-2.331.566a3.892 3.892 0 0 0-1.554 1.583Z" clip-rule="evenodd"/><path fill="#000" d="M83.166 33.813c.576.358 1.2.641 1.87.848.691.19 1.42.283 2.188.283 1.535 0 2.753-.367 3.655-1.102.92-.736 1.38-1.735 1.38-2.998 0-.83-.181-1.499-.546-2.008a3.792 3.792 0 0 0-1.352-1.216 8.339 8.339 0 0 0-1.756-.706 166.3 166.3 0 0 0-1.784-.538c-.556-.17-1.007-.377-1.352-.622-.346-.245-.518-.594-.518-1.046 0-.452.191-.801.575-1.046.403-.264.978-.396 1.727-.396.71 0 1.343.132 1.9.396.575.264 1.054.64 1.438 1.13l1.669-1.64a4.879 4.879 0 0 0-2.072-1.64c-.825-.376-1.775-.565-2.85-.565-1.016 0-1.889.16-2.618.48-.71.321-1.266.783-1.669 1.386-.403.585-.604 1.282-.604 2.093 0 .81.173 1.46.518 1.951.364.49.825.877 1.381 1.16.556.282 1.142.518 1.755.706.634.17 1.228.349 1.785.538.556.17 1.007.396 1.352.678.365.264.547.641.547 1.131s-.22.877-.662 1.16c-.441.264-1.065.396-1.87.396-.806 0-1.535-.142-2.188-.424a4.905 4.905 0 0 1-1.726-1.358l-1.67 1.64c.423.51.922.952 1.497 1.33Zm6.67-17.091v.501h-.614v1.525h-.583v-1.525h-.614v-.5h1.811Zm2.391-.034v2.066h-.583V17.75l-.427.471h-.174l-.427-.47v1.002h-.583v-2.066h.206l.891.881.892-.88h.205ZM16.33 20.016c.806 2.54 3.556 3.958 6.142 3.166 2.586-.793 8.711-4.93 7.905-7.471-.807-2.541-8.24-2.524-10.826-1.731-2.586.792-4.028 3.494-3.222 6.036Zm-1.567 13.93a3.935 3.935 0 0 0 5.497 0c1.518-1.492 4.266-6.61 2.748-8.102-1.518-1.491-6.727 1.21-8.245 2.7a3.773 3.773 0 0 0 0 5.402Zm14.524 1.474c2.617.69 5.306-.836 6.007-3.407.701-2.571.418-9.87-2.198-10.558-2.617-.69-6.576 5.492-7.277 8.063-.701 2.571.851 5.214 3.468 5.903Z"/></svg>