<svg xmlns="http://www.w3.org/2000/svg" width="138" height="49" fill="none"><path fill="#000" d="M8.167 24.693a14.303 14.303 0 0 1-3.395-5.662l16.28-14.258L37.6 18.81a14.217 14.217 0 0 1-3.236 5.653c-6.668-6.855-19.669-6.778-26.196.23ZM4.96 30.236a14.275 14.275 0 0 1 3.207-5.543c6.679 6.86 19.68 6.76 26.196-.23a14.276 14.276 0 0 1 3.424 5.773L21.373 44.384 4.96 30.236Zm42.728-5.581c0-1.729.386-3.273 1.158-4.633.789-1.376 1.855-2.442 3.198-3.198 1.36-.772 2.879-1.158 4.557-1.158 1.965 0 3.685.503 5.163 1.51 1.477 1.008 2.51 2.401 3.097 4.18h-4.054c-.403-.839-.974-1.468-1.713-1.888-.721-.42-1.56-.63-2.518-.63-1.024 0-1.939.244-2.744.73-.79.47-1.41 1.142-1.864 2.015-.436.873-.655 1.897-.655 3.072 0 1.159.219 2.183.655 3.072.453.873 1.075 1.553 1.864 2.04.805.47 1.72.705 2.744.705.957 0 1.797-.21 2.518-.63.739-.436 1.31-1.074 1.713-1.913h4.054c-.588 1.796-1.62 3.198-3.098 4.205-1.46.99-3.18 1.486-5.162 1.486-1.678 0-3.197-.378-4.557-1.133a8.598 8.598 0 0 1-3.198-3.198c-.772-1.36-1.158-2.905-1.158-4.634Zm22.45-2.971a4.99 4.99 0 0 1 1.763-1.737c.738-.42 1.578-.63 2.518-.63v3.702h-.932c-1.108 0-1.947.26-2.518.78-.554.52-.831 1.427-.831 2.72v6.95h-3.525v-13.95h3.525v2.165Zm11.591 12.011c-1.343 0-2.552-.294-3.626-.881a6.611 6.611 0 0 1-2.544-2.543c-.604-1.091-.906-2.35-.906-3.777s.31-2.686.931-3.777a6.56 6.56 0 0 1 2.594-2.519c1.091-.604 2.308-.906 3.651-.906s2.56.302 3.652.906a6.39 6.39 0 0 1 2.568 2.518c.638 1.092.957 2.35.957 3.778 0 1.427-.328 2.686-.982 3.777a6.69 6.69 0 0 1-2.62 2.543c-1.09.587-2.316.881-3.675.881Zm0-3.072c.638 0 1.233-.15 1.787-.453.571-.319 1.024-.79 1.36-1.41.336-.621.504-1.377.504-2.266 0-1.327-.353-2.342-1.058-3.047-.688-.722-1.536-1.083-2.543-1.083-1.007 0-1.855.36-2.543 1.083-.672.705-1.008 1.72-1.008 3.047 0 1.326.328 2.35.983 3.072.671.705 1.51 1.057 2.518 1.057Zm16.334-11.306c1.662 0 3.005.529 4.029 1.587 1.024 1.04 1.536 2.5 1.536 4.38v8.185h-3.525v-7.706c0-1.108-.277-1.955-.831-2.543-.554-.604-1.31-.906-2.267-.906-.973 0-1.745.302-2.316.906-.554.588-.831 1.435-.831 2.543v7.706h-3.525v-13.95h3.525v1.737a4.779 4.779 0 0 1 1.788-1.41 5.538 5.538 0 0 1 2.417-.529Zm6.752 7.126c0-1.41.277-2.66.831-3.752.571-1.09 1.334-1.93 2.291-2.518.974-.587 2.057-.881 3.249-.881 1.04 0 1.947.21 2.719.63.789.42 1.419.948 1.889 1.586v-1.99h3.55v13.95h-3.55V31.43c-.454.655-1.083 1.2-1.889 1.637-.789.42-1.704.63-2.745.63a5.992 5.992 0 0 1-3.223-.907c-.957-.605-1.72-1.452-2.291-2.544-.554-1.108-.831-2.375-.831-3.802Zm10.979.05c0-.856-.168-1.586-.504-2.19-.336-.621-.789-1.091-1.36-1.41a3.561 3.561 0 0 0-1.838-.504 3.57 3.57 0 0 0-1.813.479c-.554.319-1.007.789-1.36 1.41-.335.604-.503 1.326-.503 2.165 0 .84.168 1.578.503 2.216.353.621.806 1.1 1.36 1.435a3.52 3.52 0 0 0 1.813.504c.655 0 1.268-.16 1.838-.478a3.664 3.664 0 0 0 1.36-1.41c.336-.622.504-1.36.504-2.216Z"/></svg>